<?xml version="1.0" standalone="no"?>
<!DOCTYPE svg PUBLIC "-//W3C//DTD SVG 1.1//EN" "http://www.w3.org/Graphics/SVG/1.1/DTD/svg11.dtd" >
<svg>
<metadata>
Created by FontForge 20120731 at Fri Apr  6 09:26:12 2018
 By www-data
(c)The digitally encoded machine readable outline data for producing the typefaces licensed to you is copyrighted (C), 2002 by The Foundry, London. All Rights Reserved.
</metadata>
<defs>
<font id="FoundrySterling-Bold" horiz-adv-x="1318" >
  <font-face 
    font-family="FoundrySterling"
    font-weight="700"
    font-stretch="normal"
    units-per-em="2048"
    panose-1="2 0 8 3 0 0 0 0 0 0"
    ascent="1516"
    descent="-532"
    x-height="1008"
    cap-height="1366"
    bbox="-497 -477 2808 1911"
    underline-thickness="102"
    underline-position="-205"
    unicode-range="U+0020-FB04"
  />
<missing-glyph horiz-adv-x="1024" 
d="M102 0v1010h820v-1010h-820zM205 102h614v805h-614v-805z" />
    <glyph glyph-name=".notdef" horiz-adv-x="1024" 
d="M102 0v1010h820v-1010h-820zM205 102h614v805h-614v-805z" />
    <glyph glyph-name=".null" horiz-adv-x="0" 
 />
    <glyph glyph-name="nonmarkingreturn" horiz-adv-x="682" 
 />
    <glyph glyph-name="space" unicode=" " horiz-adv-x="485" 
 />
    <glyph glyph-name="exclam" unicode="!" horiz-adv-x="794" 
d="M229 155.5q0 69.5 49.5 119t121 49.5t119.5 -49.5t48 -118.5q0 -72 -49 -121t-119 -49q-72 0 -121 50t-49 119.5zM242 1366h313l-43 -950h-227z" />
    <glyph glyph-name="quotedbl" unicode="&#x22;" horiz-adv-x="833" 
d="M94 1366h297l-37 -518h-223zM442 1366h297l-37 -518h-223z" />
    <glyph glyph-name="numbersign" unicode="#" horiz-adv-x="1243" 
d="M145 526l23 183h184l25 172h-184l24 182h184l43 303h177l-43 -303h167l46 303h174l-43 -303h176l-25 -182h-176l-25 -172h179l-25 -183h-178l-47 -336h-176l47 336h-170l-47 -336h-176l47 336h-181zM526 709h172l25 172h-172z" />
    <glyph glyph-name="dollar" unicode="$" 
d="M168 125l127 197q2 0 13 -8.5t22.5 -14.5t31 -17.5t39 -20.5t45 -18.5t50 -16.5t53.5 -11t57 -4q104 0 164.5 45t60.5 121q0 57 -38 96q-35 35 -123 71t-188.5 83t-162.5 108q-109 109 -108 258q0 168 102.5 266.5t231.5 124.5v175h194v-162q104 -6 197.5 -44
t126.5 -61.5t51 -42.5l-131 -186q-18 14 -50 33.5t-100.5 44t-130.5 24.5q-92 0 -149 -40t-57 -103q0 -47 36 -84q25 -25 117 -62.5t199.5 -90t169.5 -113.5q106 -106 106 -269q0 -182 -112.5 -292.5t-272.5 -133.5v-178h-194v172q-106 10 -198.5 47t-128.5 64t-50 43z" />
    <glyph glyph-name="percent" unicode="%" horiz-adv-x="1558" 
d="M92 1038q0 164 83 264.5t226.5 100.5t228.5 -100.5t85 -262.5q0 -168 -84 -268t-230 -100q-143 0 -226 100t-83 266zM236 6l938 1434l141 -94l-938 -1436zM260 1036q0 -111 38 -168t101 -57q147 0 148 223q0 113 -39 170.5t-102.5 57.5t-104.5 -58.5t-41 -167.5zM844 332
q0 164 83 264t226 100t228 -100t85 -262q0 -168 -84 -268.5t-229 -100.5q-143 0 -226 100.5t-83 266.5zM1012 330q0 -111 37.5 -168.5t101.5 -57.5q147 0 147 224q0 113 -38.5 170t-102 57t-104.5 -58t-41 -167z" />
    <glyph glyph-name="ampersand" unicode="&#x26;" horiz-adv-x="1435" 
d="M94 401q0 127 72 226.5t192 154.5q-61 78 -94 138.5t-33 130.5q0 150 120 246t294 96q168 0 276.5 -86t108.5 -230q0 -231 -295 -360l246 -262q27 39 54.5 140t27.5 175h235q-6 -268 -145 -485q49 -43 84 -54.5t90 -13.5v-219l-24 -2q-209 0 -322 115
q-172 -137 -406 -138q-205 0 -343 123t-138 305zM356 408q0 -88 66.5 -147.5t171.5 -59.5q131 0 221 73l-313 344q-146 -79 -146 -210zM494 1057q0 -61 94 -172q106 49 145 93t39 97q0 109 -127 109q-70 0 -110.5 -37t-40.5 -90z" />
    <glyph glyph-name="quotesingle" unicode="'" horiz-adv-x="487" 
d="M94 1366h299l-37 -518h-225z" />
    <glyph glyph-name="parenleft" unicode="(" horiz-adv-x="903" 
d="M135 602q0 168 52.5 320.5t118 246t153.5 174t129 108.5t76 46l4 2l135 -182q-293 -213 -359 -543q-16 -82 -16 -168q0 -94 21.5 -184t47 -154.5t72.5 -130t75 -99.5t77 -76t53 -45l29 -21l-135 -183q-279 162 -416 414q-117 217 -117 475z" />
    <glyph glyph-name="parenright" unicode=")" horiz-adv-x="903" 
d="M100 -104q293 213 359 542q16 82 16 168q0 94 -21.5 184.5t-47 155t-72.5 130t-75 99t-77 75.5t-53 45l-29 22l136 182q279 -162 415 -414q117 -217 117 -475q0 -168 -52 -320.5t-118 -245.5t-154 -174t-129 -108.5t-75 -46.5l-4 -2z" />
    <glyph glyph-name="asterisk" unicode="*" horiz-adv-x="884" 
d="M100 1051l56 168l194 -64v211h185v-211l194 64l55 -168l-202 -66l147 -194l-143 -103l-144 180l-143 -180l-143 103l147 194z" />
    <glyph glyph-name="plus" unicode="+" 
d="M121 424v229h424v424h229v-424h424v-229h-424v-424h-229v424h-424z" />
    <glyph glyph-name="comma" unicode="," horiz-adv-x="657" 
d="M80 -145q2 2 18.5 20.5t23.5 26.5t23.5 27.5t24.5 33.5t22.5 37t21.5 43t15.5 45t12.5 51.5t4 53.5q0 25 -4 81h284q2 -20 2 -67q0 -291 -297 -496z" />
    <glyph glyph-name="hyphen" unicode="-" horiz-adv-x="1015" 
d="M152 424v229h712v-229h-712z" />
    <glyph glyph-name="period" unicode="." horiz-adv-x="587" 
d="M125 155.5q0 69.5 49 119t121 49.5q70 0 119 -49.5t49 -118.5q0 -72 -49 -121t-119 -49t-120 50t-50 119.5z" />
    <glyph glyph-name="slash" unicode="/" horiz-adv-x="1052" 
d="M84 -256l627 1694l200 -72l-628 -1694z" />
    <glyph glyph-name="zero" unicode="0" 
d="M92 686q0 322 153.5 517.5t411.5 195.5q260 0 415 -195.5t155 -515.5q0 -332 -151.5 -526.5t-418.5 -194.5q-262 0 -413.5 194.5t-151.5 524.5zM375 682q0 -236 74.5 -357.5t203.5 -121.5q135 0 212 121.5t77 357.5t-75.5 359.5t-204.5 123.5q-131 0 -209 -126t-78 -357z
" />
    <glyph glyph-name="one" unicode="1" 
d="M188 1032l498 334h221v-1366h-286v1030l-302 -199z" />
    <glyph glyph-name="two" unicode="2" 
d="M166 1184q4 8 20.5 25.5t60.5 52t97 63.5t136 51.5t173 22.5q203 0 336 -118t133 -314q0 -135 -57 -238.5t-172 -218.5q-150 -150 -313 -272h573v-238h-965v211q233 186 465 418q184 184 185 332q0 90 -58.5 145t-154.5 55q-147 0 -314 -145z" />
    <glyph glyph-name="three" unicode="3" 
d="M147 121l129 182l11 -8l20 -12q10 -6 27.5 -15.5t35 -17.5t42 -17.5t49 -15.5t54.5 -10t58 -4q133 0 201 53t68 143q0 63 -29 104.5t-84 58t-98 20.5t-111 4h-59v227h33q74 0 105.5 1t85.5 18.5t91 54.5q41 41 41 106q0 72 -60.5 121t-158.5 49q-143 0 -291 -110
l-137 161q184 184 473 185q199 0 328 -107.5t129 -277.5q0 -102 -60.5 -195.5t-158.5 -109.5q119 -14 187.5 -102.5t68.5 -203.5q0 -197 -143.5 -316.5t-391.5 -119.5q-133 0 -245.5 38t-153 68t-56.5 48z" />
    <glyph glyph-name="four" unicode="4" 
d="M115 264v199l651 903h285v-872h168v-230h-168v-264h-273v264h-663zM416 494h362v528z" />
    <glyph glyph-name="five" unicode="5" 
d="M141 123l131 180l19 -12q18 -10 33.5 -19.5t44 -22.5t56.5 -22.5t65.5 -15.5t76.5 -6q127 0 204 64.5t77 176.5q0 111 -69.5 177.5t-213.5 66.5q-25 0 -49 -3t-44.5 -9t-38 -12.5t-33 -12.5t-24.5 -11t-18 -11l-8 -4l-90 55v684h827v-233h-565v-242q41 20 154 20
q203 0 330 -121.5t127 -318.5q0 -231 -147.5 -367.5t-403.5 -136.5q-127 0 -236.5 40t-151 70t-53.5 46z" />
    <glyph glyph-name="six" unicode="6" 
d="M133 657q0 338 160 540t440 202q78 0 150.5 -13.5t118 -31t83 -39t51 -31.5t21.5 -18l-119 -185q-133 88 -282 88q-180 0 -268.5 -106.5t-94.5 -286.5q47 76 143.5 120t192.5 44q203 0 331 -132t128 -337q0 -221 -141.5 -362.5t-368.5 -141.5q-250 0 -397.5 187.5
t-147.5 502.5zM442 461q0 -115 70 -184.5t178 -69.5q102 0 168 70.5t66 183.5q0 111 -64.5 177.5t-167.5 66.5q-111 0 -180.5 -69t-69.5 -175z" />
    <glyph glyph-name="seven" unicode="7" 
d="M156 1128v238h1013v-219l-532 -1147h-307l536 1128h-710z" />
    <glyph glyph-name="eight" unicode="8" 
d="M135 395q0 111 58.5 200t160.5 120q-88 31 -132 108.5t-44 173.5q0 182 132 291t347 109q217 0 351.5 -108.5t134.5 -289.5q0 -104 -47 -180t-129 -104q104 -35 160.5 -120t56.5 -202q0 -199 -142.5 -312.5t-380 -113.5t-382 114.5t-144.5 313.5zM401 403q0 -90 69 -147
t194 -57q123 0 189.5 56t66.5 146q0 88 -67 142.5t-191 54.5q-127 0 -194 -53.5t-67 -141.5zM442 993q0 -78 59.5 -129t164.5 -51q100 0 156.5 50t56.5 128q0 76 -57.5 126t-162.5 50q-98 0 -157.5 -52t-59.5 -122z" />
    <glyph glyph-name="nine" unicode="9" 
d="M131 895q0 221 141.5 362.5t368.5 141.5q250 0 397.5 -187.5t147.5 -502.5q0 -338 -160 -540t-440 -202q-78 0 -151 13.5t-118 31t-82.5 39t-51 31.5t-21.5 18l119 185q133 -88 282 -88q180 0 268.5 106.5t94.5 286.5q-47 -76 -143.5 -120t-192.5 -44q-203 0 -331 132
t-128 337zM395 905q0 -111 64.5 -177t167.5 -66q111 0 180.5 68.5t69.5 174.5q0 115 -70 184.5t-178 69.5q-102 0 -168 -70.5t-66 -183.5z" />
    <glyph glyph-name="colon" unicode=":" horiz-adv-x="587" 
d="M125 155.5q0 69.5 49 119t121 49.5q70 0 119 -49.5t49 -118.5q0 -72 -49 -121t-119 -49t-120 50t-50 119.5zM125 846q0 70 49 119t121 49q70 0 119 -48t49 -120t-49 -121t-119 -49t-120 49t-50 121z" />
    <glyph glyph-name="semicolon" unicode=";" horiz-adv-x="657" 
d="M80 -145q2 2 18.5 20.5t23.5 26.5t23.5 27.5t24.5 33.5t22.5 37t21.5 43t15.5 45t12.5 51.5t4 53.5q0 25 -4 81h284q2 -20 2 -67q0 -291 -297 -496zM195 846q0 70 49 119t121 49q70 0 118.5 -48t48.5 -120t-49 -121t-118.5 -49t-119.5 49t-50 121z" />
    <glyph glyph-name="less" unicode="&#x3c;" horiz-adv-x="1320" 
d="M121 451v178l989 450l90 -213l-723 -327l723 -334l-90 -205z" />
    <glyph glyph-name="equal" unicode="=" horiz-adv-x="1320" 
d="M100 244v229h1121v-229h-1121zM100 604v230h1121v-230h-1121z" />
    <glyph glyph-name="greater" unicode="&#x3e;" horiz-adv-x="1320" 
d="M121 205l723 334l-723 327l90 213l989 -450v-178l-989 -451z" />
    <glyph glyph-name="question" unicode="?" horiz-adv-x="1101" 
d="M98 1237q27 20 69 48t157.5 71t226.5 43q203 0 326.5 -105.5t123.5 -281.5q0 -154 -96 -250q-47 -47 -155.5 -113.5t-114.5 -73.5q-29 -29 -29 -143v-16h-250q-8 49 -8 94q0 135 62 197q33 31 125 88t129 94q53 53 53 123q0 72 -53.5 114.5t-147.5 42.5q-150 0 -301 -108
zM309 155.5q0 69.5 49.5 119t120.5 49.5q70 0 119 -49.5t49 -118.5q0 -72 -49 -121t-118.5 -49t-120 50t-50.5 119.5z" />
    <glyph glyph-name="at" unicode="@" horiz-adv-x="1654" 
d="M94 631q0 322 232.5 540t574.5 218q281 0 470.5 -156t189.5 -393q0 -223 -162 -361.5t-414 -138.5q-29 0 -61 4l10 74q-119 -82 -213 -82q-115 0 -185.5 76.5t-70.5 195.5q0 193 139 324t344 131q37 0 74 -4t66.5 -11.5t51.5 -14.5l40 -13l18 -6l-102 -520
q131 23 210.5 114.5t79.5 227.5q0 172 -134 280.5t-353 108.5q-270 0 -445 -169t-175 -429q0 -223 147 -356.5t385 -133.5q201 0 428 133l86 -129q-240 -168 -536.5 -168t-495.5 184.5t-199 473.5zM641 612q0 -53 30.5 -86.5t76.5 -33.5q94 0 188 90l63 327q-33 4 -51 4
q-125 0 -216 -89t-91 -212z" />
    <glyph glyph-name="A" unicode="A" horiz-adv-x="1349" 
d="M33 0l495 1366h291l498 -1366h-299l-100 285h-492l-100 -285h-293zM498 508h344l-172 549z" />
    <glyph glyph-name="B" unicode="B" horiz-adv-x="1228" 
d="M145 0v1366h445q141 0 233 -21.5t160 -89.5q102 -102 102 -262q0 -225 -186 -293q-2 -2 -4 -2q141 -41 195 -133q39 -66 38 -155q0 -172 -104 -277q-86 -86 -198.5 -109.5t-295.5 -23.5h-385zM420 231h155q96 0 139.5 14.5t73.5 45.5q45 45 45.5 118.5t-42.5 116.5
q-37 37 -85.5 47.5t-152.5 10.5h-133v-353zM420 797h39h51h55q14 0 50 2t50.5 7t42 12t39 20.5t26.5 32t20.5 44t5.5 56.5q0 49 -16.5 82.5t-36 50t-57.5 25t-58.5 9.5t-59.5 1h-151v-342z" />
    <glyph glyph-name="C" unicode="C" horiz-adv-x="1329" 
d="M94 672q0 334 203 530.5t516 196.5q86 0 165 -15.5t127 -35t91 -46t55.5 -38t24.5 -23.5l-125 -190l-12 8q-12 8 -25.5 16t-35 20.5t-47 21.5t-56.5 18.5t-70 14.5t-80 5q-190 0 -315 -126t-125 -339q0 -215 115.5 -343t310.5 -128q37 0 75 5t69.5 15.5t60 20.5
t54.5 22.5t42 21.5t30.5 18.5t16.5 9.5l121 -195q-8 -8 -28.5 -23.5t-67.5 -43t-101.5 -49t-137.5 -38t-169 -16.5q-295 0 -488.5 191.5t-193.5 513.5z" />
    <glyph glyph-name="D" unicode="D" horiz-adv-x="1421" 
d="M145 0v1366h377q117 0 174.5 -3t147.5 -18.5t160.5 -55.5t136.5 -105q186 -186 186 -489.5t-186 -489.5q-72 -72 -155 -116t-184.5 -61.5t-177 -22.5t-198.5 -5h-281zM432 231h137q229 0 349 121t120 350q0 207 -116 324q-55 55 -129 81t-122 29t-157 3h-82v-908z" />
    <glyph glyph-name="E" unicode="E" horiz-adv-x="1087" 
d="M145 0v1366h828v-233h-541v-318h508v-229h-508v-348h557v-238h-844z" />
    <glyph glyph-name="F" unicode="F" horiz-adv-x="1054" 
d="M145 0v1366h816v-233h-529v-318h502v-229h-502v-586h-287z" />
    <glyph glyph-name="G" unicode="G" horiz-adv-x="1427" 
d="M94 672q0 334 203 530.5t516 196.5q86 0 165 -15.5t127 -35t91 -46t55.5 -38t24.5 -23.5l-125 -190l-12 8q-12 8 -25.5 16t-35 20.5t-47 21.5t-56.5 18.5t-70 14.5t-80 5q-190 0 -315 -126t-125 -339q0 -215 119 -347t317 -132q115 0 203 33v235h-256v221h528v-591l-4 -3
q-227 -139 -516 -139q-295 0 -488.5 191.5t-193.5 513.5z" />
    <glyph glyph-name="H" unicode="H" horiz-adv-x="1372" 
d="M145 0v1366h291v-537h500v537h291v-1366h-291v592h-500v-592h-291z" />
    <glyph glyph-name="I" unicode="I" horiz-adv-x="581" 
d="M145 0v1366h291v-1366h-291z" />
    <glyph glyph-name="J" unicode="J" horiz-adv-x="847" 
d="M14 61l99 203q100 -45 163 -45q70 0 105 35q27 27 35 66.5t8 130.5v915h291v-911q0 -94 -3 -144.5t-29 -122t-75 -120.5q-100 -100 -291 -101q-78 0 -153.5 23.5t-105.5 41t-44 29.5z" />
    <glyph glyph-name="K" unicode="K" horiz-adv-x="1263" 
d="M145 0v1366h291v-639l453 639h319l-495 -664l522 -702h-348l-451 637v-637h-291z" />
    <glyph glyph-name="L" unicode="L" horiz-adv-x="1064" 
d="M145 0v1366h291v-1128h529v-238h-820z" />
    <glyph glyph-name="M" unicode="M" horiz-adv-x="1771" 
d="M113 0l123 1366h311l344 -989l326 989h311l131 -1366h-273l-75 961l-316 -961h-237l-326 961l-63 -961h-256z" />
    <glyph glyph-name="N" unicode="N" horiz-adv-x="1372" 
d="M145 0v1366h263l561 -905l-6 905h264v-1366h-248l-576 911l7 -911h-265z" />
    <glyph glyph-name="O" unicode="O" horiz-adv-x="1519" 
d="M94 694q0 315 184.5 510t481.5 195q299 0 482 -196.5t183 -508.5q0 -330 -184 -528.5t-479 -198.5q-297 0 -482.5 201.5t-185.5 525.5zM387 676q0 -211 107.5 -338t271.5 -127q100 0 175 44t115 117.5t58.5 154.5t18.5 169q0 205 -106.5 335t-276.5 130
q-164 0 -263.5 -135t-99.5 -350z" />
    <glyph glyph-name="P" unicode="P" horiz-adv-x="1218" 
d="M145 0v1366h385q178 0 284 -22.5t183 -100.5q111 -111 111 -293q0 -193 -121 -313q-86 -86 -188.5 -111.5t-261.5 -25.5h-107v-500h-285zM430 731h100q182 0 232 49q53 53 53 158q0 100 -51 152q-31 31 -79 40t-142 9h-113v-408z" />
    <glyph glyph-name="Q" unicode="Q" horiz-adv-x="1509" 
d="M94 694q0 315 184.5 510t481.5 195q299 0 482 -196.5t183 -508.5q0 -344 -204 -549q-131 -131 -293 -145q80 -70 289 -70q104 0 176 15l37 -193q-125 -33 -277 -33q-184 0 -316 61.5t-241 207.5q-201 37 -351.5 222t-150.5 484zM387 676q0 -211 107.5 -338t271.5 -127
q100 0 175 44t115 117.5t58.5 154.5t18.5 169q0 205 -106.5 335t-276.5 130q-164 0 -263.5 -135t-99.5 -350z" />
    <glyph glyph-name="R" unicode="R" horiz-adv-x="1222" 
d="M145 0v1366h351q102 0 138 -1t110.5 -11.5t124 -36t94.5 -70.5q111 -111 110 -272q0 -133 -76.5 -229.5t-224.5 -118.5q31 -2 57.5 -13.5t49 -34t38 -40t35 -53t26.5 -50t25.5 -55.5t20.5 -47l150 -334h-308l-166 371q-23 53 -45 85.5t-38.5 50t-47 25t-45 8.5t-61.5 1
h-33v-541h-285zM430 764h115q129 0 186 57q53 53 53 139.5t-43 129.5q-25 25 -62.5 36t-65 12t-99.5 1h-84v-375z" />
    <glyph glyph-name="S" unicode="S" horiz-adv-x="1124" 
d="M66 125l127 197q172 -111 317 -111q100 0 159.5 45t59.5 121q0 57 -39 96q-35 35 -123 71t-188 83t-162 108q-109 109 -108 258q0 182 132 294t341 112q121 0 228.5 -38t144 -64.5t57.5 -47.5l-131 -186q-18 14 -50 33.5t-100.5 44t-130.5 24.5q-92 0 -149.5 -40
t-57.5 -103q0 -47 35 -82q25 -25 118 -63.5t200.5 -91t168.5 -113.5q106 -106 107 -269q0 -195 -136 -315.5t-360 -120.5q-131 0 -244.5 39t-156.5 70t-59 49z" />
    <glyph glyph-name="T" unicode="T" horiz-adv-x="1148" 
d="M55 1133v233h1039v-233h-373v-1133h-291v1133h-375z" />
    <glyph glyph-name="U" unicode="U" horiz-adv-x="1343" 
d="M133 604v762h291v-852q0 -162 68 -229q63 -63 184 -64q113 0 186 74q43 43 54.5 111.5t11.5 234.5v725h282v-770q0 -193 -26.5 -296t-104.5 -181q-152 -152 -409 -152q-254 0 -408 154q-84 84 -106.5 191.5t-22.5 291.5z" />
    <glyph glyph-name="V" unicode="V" horiz-adv-x="1316" 
d="M43 1366h293l323 -1026l330 1026h285l-475 -1366h-283z" />
    <glyph glyph-name="W" unicode="W" horiz-adv-x="1865" 
d="M80 1366h282l189 -1008l246 1008h299l231 -1008l199 1008h260l-318 -1366h-301l-227 1026l-246 -1026h-301z" />
    <glyph glyph-name="X" unicode="X" horiz-adv-x="1290" 
d="M57 0l443 707l-414 659h313l258 -444l267 444h293l-416 -655l432 -711h-311l-281 479l-285 -479h-299z" />
    <glyph glyph-name="Y" unicode="Y" horiz-adv-x="1249" 
d="M55 1366h295l289 -592l289 592h266l-430 -821v-545h-279v545z" />
    <glyph glyph-name="Z" unicode="Z" horiz-adv-x="1169" 
d="M90 0v203l619 930h-592v233h942v-213l-602 -915h622v-238h-989z" />
    <glyph glyph-name="bracketleft" unicode="[" horiz-adv-x="878" 
d="M193 -258v1624h550v-229h-276v-1166h276v-229h-550z" />
    <glyph glyph-name="backslash" unicode="\" horiz-adv-x="1052" 
d="M141 1366l201 72l627 -1694l-199 -72z" />
    <glyph glyph-name="bracketright" unicode="]" horiz-adv-x="878" 
d="M135 -29h277v1166h-277v229h551v-1624h-551v229z" />
    <glyph glyph-name="asciicircum" unicode="^" horiz-adv-x="1316" 
d="M139 496l420 870h207l412 -870h-250l-264 579l-265 -579h-260z" />
    <glyph glyph-name="underscore" unicode="_" horiz-adv-x="1062" 
d="M-4 -29h1071v-229h-1071v229z" />
    <glyph glyph-name="grave" unicode="`" horiz-adv-x="712" 
d="M78 1311l104 207l453 -252l-84 -150z" />
    <glyph glyph-name="a" unicode="a" horiz-adv-x="1042" 
d="M82 301q0 74 25.5 133.5t63.5 96t94.5 64.5t104.5 41t109.5 20.5t93 8.5t70.5 1h29q0 88 -31 118q-41 41 -143 41q-139 0 -269 -73l-92 176q16 14 53 34.5t131.5 47t198.5 26.5q217 0 330 -112q39 -39 58.5 -95.5t21.5 -96.5t2 -128v-604h-240v72q-141 -94 -284 -95
q-150 0 -238 89.5t-88 234.5zM324 319q0 -72 47 -102.5t108 -30.5q31 0 61.5 5.5t52 14.5t37 17t29.5 17l13 8v229h-43q-147 0 -226 -35t-79 -123z" />
    <glyph glyph-name="b" unicode="b" horiz-adv-x="1165" 
d="M125 51v1432h276v-516l9 4q10 6 21 12t28.5 13.5t37 14.5t43 13t52.5 9t57 3q186 0 310 -137t124 -371q0 -252 -145 -404.5t-389 -152.5q-184 0 -424 80zM401 213q61 -20 148 -20q119 0 187.5 90t68.5 243q0 139 -64.5 213t-154.5 74q-92 0 -185 -61v-539z" />
    <glyph glyph-name="c" unicode="c" horiz-adv-x="1019" 
d="M82 496q0 233 152.5 386.5t381.5 153.5q96 0 180.5 -27.5t120 -53t48.5 -42.5l-111 -170q-98 70 -213 70q-129 0 -206 -93t-77 -210q0 -139 71 -225t204 -86q27 0 53.5 4t50 10t44 13t37 15.5t27.5 14.5t19 10l10 6l107 -176q-12 -12 -47 -35.5t-132 -56.5t-204 -33
q-233 0 -374.5 149t-141.5 376z" />
    <glyph glyph-name="d" unicode="d" horiz-adv-x="1171" 
d="M82 489q0 240 143.5 393.5t341.5 153.5q86 0 203 -39v486h277v-1483h-242v61q-111 -88 -270 -88q-205 0 -329 143.5t-124 372.5zM360 498q0 -139 69 -219t171 -80q39 0 81 12t62.5 23.5t26.5 17.5v516q-82 41 -154 41q-115 0 -185.5 -80.5t-70.5 -230.5z" />
    <glyph glyph-name="e" unicode="e" horiz-adv-x="1099" 
d="M82 498q0 233 135 385.5t348 152.5q217 0 335 -143t118 -393q0 -25 -2 -53.5t-2 -32.5h-664q-4 -74 60.5 -151t197.5 -77q117 0 269 72l90 -176q-10 -10 -51.5 -32.5t-136.5 -50.5t-195 -28q-238 0 -370 149t-132 378zM348 612h414q0 29 -6 59.5t-24.5 69.5t-59.5 64.5
t-101 25.5q-90 0 -148.5 -60.5t-74.5 -158.5z" />
    <glyph glyph-name="f" unicode="f" horiz-adv-x="907" 
d="M76 778v230h164v49q0 131 22.5 210t83.5 140q100 100 281 100q80 0 151.5 -23.5t102 -44t34.5 -28.5l-104 -180q-82 49 -145 49q-43 0 -73 -14.5t-44 -33t-22.5 -52t-9.5 -56t-1 -63.5v-53h297v-230h-297v-778h-276v778h-164z" />
    <glyph glyph-name="g" unicode="g" horiz-adv-x="1167" 
d="M82 496q0 231 149.5 385.5t391.5 154.5q207 0 419 -106v-916q0 -90 -4 -135t-28.5 -108.5t-75.5 -114.5q-133 -133 -373 -133q-127 0 -238.5 37t-152.5 64.5t-61 47.5l110 181l10 -7q10 -6 21.5 -12t30 -16.5t38 -18.5t45 -17t51 -15.5t55.5 -10.5t60 -4q80 0 131.5 21.5
t73 62.5t28.5 77t7 85v63q-106 -61 -235 -61q-217 0 -335 146.5t-118 349.5zM358 510q0 -135 69 -212t171 -77q39 0 81 12.5t64.5 23.5t26.5 15v512q-72 31 -152 31q-111 0 -185.5 -83t-74.5 -222z" />
    <glyph glyph-name="h" unicode="h" horiz-adv-x="1126" 
d="M125 0v1483h276v-522q133 76 244 75q164 0 262 -98q41 -41 64.5 -87t33 -108.5t10.5 -94.5t1 -105v-543h-277v530q0 190 -43 234q-37 37 -108 37q-102 0 -187 -64v-737h-276z" />
    <glyph glyph-name="i" unicode="i" horiz-adv-x="524" 
d="M104 1290.5q0 65.5 46.5 111.5t112 46t111.5 -46t46 -111.5t-46 -111.5t-111.5 -46t-112 46t-46.5 111.5zM125 0v1008h276v-1008h-276z" />
    <glyph glyph-name="j" unicode="j" horiz-adv-x="522" 
d="M-193 -420l74 193q59 -23 99 -23q68 0 104 37q39 39 39 147v1074h276v-1057q0 -119 -20.5 -194.5t-85.5 -141.5q-92 -92 -266 -92q-51 0 -102.5 12t-81.5 24.5t-36 20.5zM102 1290.5q0 65.5 46.5 111.5t112 46t111.5 -46t46 -111.5t-46 -111.5t-111.5 -46t-112 46
t-46.5 111.5z" />
    <glyph glyph-name="k" unicode="k" horiz-adv-x="1116" 
d="M125 0v1483h276v-844l367 369h319l-446 -443l451 -565h-328l-363 473v-473h-276z" />
    <glyph glyph-name="l" unicode="l" horiz-adv-x="526" 
d="M125 0v1483h276v-1483h-276z" />
    <glyph glyph-name="m" unicode="m" horiz-adv-x="1693" 
d="M125 0v1008h235v-76q135 104 283 104t248 -110q141 111 321 110q164 0 256 -92q35 -35 58.5 -83t35 -80.5t16.5 -112.5t5 -108v-136v-424h-276v551q0 53 -1 74.5t-7.5 63.5t-20.5 60.5t-43 35t-70 16.5q-76 0 -184 -72q12 -49 12 -223v-506h-276v551q0 53 -1 74.5
t-7.5 63.5t-20.5 60.5t-43 35t-70 16.5q-82 0 -174 -58v-743h-276z" />
    <glyph glyph-name="n" unicode="n" horiz-adv-x="1126" 
d="M125 0v1008h235v-76q139 104 285 104q164 0 262 -98q53 -53 79 -131t28 -122t2 -142v-543h-277v530q0 190 -43 234q-37 37 -108 37q-102 0 -187 -64v-737h-276z" />
    <glyph glyph-name="o" unicode="o" horiz-adv-x="1189" 
d="M82 498q0 236 146.5 387t375.5 151q221 0 362.5 -147.5t141.5 -374.5q0 -242 -145.5 -392.5t-378.5 -150.5q-223 0 -362.5 148t-139.5 379zM358 508q0 -137 68 -222t176 -85q106 0 167.5 82t61.5 219t-66.5 222t-173 85t-170 -83t-63.5 -218z" />
    <glyph glyph-name="p" unicode="p" horiz-adv-x="1171" 
d="M125 -444v1452h242v-62q113 90 270 90q205 0 329 -144t124 -374q0 -240 -143.5 -393.5t-342.5 -153.5q-86 0 -203 39v-454h-276zM401 240q82 -41 154 -41q115 0 185.5 80.5t70.5 230.5q0 139 -68.5 219t-171.5 80q-39 0 -80.5 -12.5t-62 -23.5t-27.5 -17v-516z" />
    <glyph glyph-name="q" unicode="q" horiz-adv-x="1165" 
d="M82 479q0 252 145.5 404.5t388.5 152.5q184 0 424 -80v-1400h-276v485l-10 -4q-8 -6 -19.5 -12.5t-29 -13.5t-37 -14t-43 -13.5t-52 -9.5t-57.5 -3q-186 0 -310 137.5t-124 370.5zM360 481q0 -139 64.5 -212.5t155.5 -73.5q92 0 184 61v539q-61 20 -148 20
q-119 0 -187.5 -90t-68.5 -244z" />
    <glyph glyph-name="r" unicode="r" horiz-adv-x="841" 
d="M125 0v1008h235v-127q8 16 44 48t118 69.5t172 37.5q20 0 39 -2t31 -6t21.5 -8t17.5 -8l6 -2l-64 -209q-25 6 -61 6q-184 0 -283 -145v-662h-276z" />
    <glyph glyph-name="s" unicode="s" horiz-adv-x="948" 
d="M55 86l95 176l18 -8q16 -10 30.5 -17.5t41 -18.5t52 -19.5t57.5 -13.5t63 -5q156 0 155 99q0 41 -32.5 63.5t-133.5 63.5q-33 12 -51 20q-51 23 -78.5 37t-76 49t-72 87t-23.5 120q0 143 108.5 230t287.5 87q205 0 329 -86l4 -4l-90 -170q-12 6 -40.5 19.5t-86 30
t-102.5 16.5q-70 0 -102.5 -28t-32.5 -64q0 -10 2 -20.5t8 -19t11 -14.5t17.5 -14t20.5 -12t25.5 -12.5t28.5 -12.5l34 -12q23 -8 35 -15q70 -29 106.5 -47t87 -56t73 -91t22.5 -127q0 -150 -107.5 -238t-292.5 -88q-102 0 -199 29t-136.5 50.5t-55.5 35.5z" />
    <glyph glyph-name="t" unicode="t" horiz-adv-x="894" 
d="M41 778v230h174v280h277v-280h286v-230h-286v-403q0 -37 3 -61.5t14 -53.5t38.5 -43t70.5 -14q53 0 127 24l70 -190q-10 -8 -35.5 -20.5t-88 -29t-130.5 -16.5q-170 0 -260 90q-41 41 -60.5 95.5t-22.5 96.5t-3 132v393h-174z" />
    <glyph glyph-name="u" unicode="u" horiz-adv-x="1126" 
d="M111 465v543h276v-531q0 -190 43 -233q37 -37 109 -37q102 0 186 63v738h276v-1008h-235v76q-139 -104 -285 -105q-164 0 -262 99q-41 41 -64.5 87t-32.5 108.5t-10 94t-1 105.5z" />
    <glyph glyph-name="v" unicode="v" horiz-adv-x="1101" 
d="M29 1008h286l242 -705l238 705h268l-387 -1008h-266z" />
    <glyph glyph-name="w" unicode="w" horiz-adv-x="1601" 
d="M59 1008h265l161 -707l183 707h247l181 -707l174 707h254l-277 -1008h-286l-181 690l-172 -690h-278z" />
    <glyph glyph-name="x" unicode="x" horiz-adv-x="1161" 
d="M49 0l369 504l-350 504h313l211 -295l199 295h288l-338 -498l371 -510h-309l-230 328l-225 -328h-299z" />
    <glyph glyph-name="y" unicode="y" horiz-adv-x="1183" 
d="M-12 -414l82 197q82 -35 155 -35q86 0 137 51q43 43 101 201l-422 1008h293l270 -707l252 707h272l-399 -1018q-61 -156 -102 -234t-92 -129q-104 -104 -295 -104q-125 0 -252 63z" />
    <glyph glyph-name="z" unicode="z" horiz-adv-x="1087" 
d="M102 0v188l504 590h-491v230h839v-199l-499 -580h516v-229h-869z" />
    <glyph glyph-name="braceleft" unicode="{" horiz-adv-x="888" 
d="M115 481v217q70 12 89 39t19 121v94q0 117 14.5 184.5t65.5 119t136 78t143.5 29.5t162.5 3h29v-215q-186 -10 -227 -31q-12 -6 -21 -14q-14 -14 -20 -40t-7 -49.5t-1 -86.5v-37v-27q0 -276 -136 -276q135 0 136 -277v-98v-37q0 -86 4 -120.5t24 -55.5q35 -35 224 -43
q16 -2 24 -2v-215q-225 0 -313 25q-98 27 -158 86q-51 51 -65.5 118.5t-14.5 184.5v166q0 94 -19 120.5t-89 38.5z" />
    <glyph glyph-name="bar" unicode="|" horiz-adv-x="577" 
d="M145 -258v1624h287v-1624h-287z" />
    <glyph glyph-name="braceright" unicode="}" horiz-adv-x="888" 
d="M115 -43q186 10 227 31q12 6 20 14q14 14 20.5 40t7.5 49.5t1 86.5v37v98q0 276 135 277q-135 0 -135 276v27v37q0 86 -4 120.5t-25 55.5q-35 35 -223 43q-16 2 -24 2v215q225 0 313 -25q98 -27 158 -86q51 -51 65.5 -118.5t14.5 -184.5v-94q0 -94 19.5 -120.5
t88.5 -39.5v-217q-70 -12 -89 -38.5t-19 -120.5v-166q0 -117 -14.5 -184.5t-65.5 -119t-136 -78t-143.5 -29.5t-163.5 -3h-28v215z" />
    <glyph glyph-name="asciitilde" unicode="~" 
d="M162 508l6 12q6 10 13 18.5t18.5 25t25 28.5t31.5 27.5t39.5 27.5t46.5 22.5t54.5 15.5t62.5 5q92 0 223 -58.5t184 -58.5q16 0 30.5 3.5t28 11.5t22.5 13t23 19l17 17q4 4 17 18l12 15l141 -109q-125 -178 -287 -178q-88 0 -224 58.5t-191 58.5q-16 0 -34 -4t-31 -12.5
t-24.5 -15.5t-21.5 -18.5t-16 -17.5t-13 -14l-8 -10z" />
    <glyph glyph-name="uni0080" horiz-adv-x="1349" 
d="M33 0l495 1366h291l498 -1366h-299l-100 285h-492l-100 -285h-293zM326 1605.5q0 59.5 42 101.5t101 42t101 -42t42 -101.5t-42 -101.5t-101 -42t-101 42t-42 101.5zM498 508h344l-172 549zM725 1605.5q0 59.5 42 101.5t101.5 42t101.5 -42t42 -101.5t-42 -101.5
t-101.5 -42t-101.5 42t-42 101.5z" />
    <glyph glyph-name="uni0081" horiz-adv-x="1349" 
d="M33 0l495 1366h291l498 -1366h-299l-100 285h-492l-100 -285h-293zM446 1687.5q0 92.5 67 158t159 65.5t157.5 -65.5t65.5 -158t-65.5 -159t-157.5 -66.5t-159 66.5t-67 159zM498 508h344l-172 549zM575 1690q0 -39 28 -67t67 -28t66.5 28t27.5 67t-27.5 66.5t-66.5 27.5
t-67 -27.5t-28 -66.5z" />
    <glyph glyph-name="uni0082" horiz-adv-x="1329" 
d="M94 672q0 334 203 530.5t516 196.5q86 0 165 -15.5t127 -35t91 -46t55.5 -38t24.5 -23.5l-125 -190l-12 8q-12 8 -25.5 16t-35 20.5t-47 21.5t-56.5 18.5t-70 14.5t-80 5q-190 0 -315 -126t-125 -339q0 -215 115.5 -343t310.5 -128q37 0 75 5t69.5 15.5t60 20.5
t54.5 22.5t42 21.5t30.5 18.5t16.5 9.5l121 -195q-8 -8 -28.5 -23.5t-67.5 -43t-101.5 -49t-136.5 -38t-168 -16.5l-8 -78q31 6 41 7q86 0 139.5 -48.5t53.5 -128.5q0 -88 -66 -142t-152 -54q-113 0 -170 51l46 90q47 -31 108 -31q55 0 77.5 26t22.5 56q0 33 -22.5 51.5
t-61.5 18.5q-45 0 -90 -23l-67 37l28 176q-250 37 -406.5 223.5t-156.5 473.5z" />
    <glyph glyph-name="uni0083" horiz-adv-x="1087" 
d="M145 0v1366h828v-233h-541v-318h508v-229h-508v-348h557v-238h-844zM303 1610l453 252l104 -207l-473 -195z" />
    <glyph glyph-name="uni0084" horiz-adv-x="1372" 
d="M145 0v1366h263l561 -905l-6 905h264v-1366h-248l-576 911l7 -911h-265zM307 1583q18 25 44 53.5t91.5 70.5t124.5 42q49 0 118 -31.5t101 -31.5q16 0 33 5t29 11t25.5 16.5t21.5 17.5t17.5 15t11.5 10l120 -121l-8 -10q-8 -10 -16 -18t-21.5 -22.5t-27 -26t-30.5 -25.5
t-35.5 -24.5t-38 -19.5t-41 -14t-42.5 -5q-49 0 -117.5 32.5t-103.5 32.5q-12 0 -27.5 -5t-28.5 -12t-27.5 -17.5t-22.5 -17.5t-19 -18l-10 -8z" />
    <glyph glyph-name="uni0085" unicode="&#x85;" horiz-adv-x="1519" 
d="M94 694q0 315 184.5 510t481.5 195q299 0 482 -196.5t183 -508.5q0 -330 -184 -528.5t-479 -198.5q-297 0 -482.5 201.5t-185.5 525.5zM387 676q0 -211 107.5 -338t271.5 -127q100 0 175 44t115 117.5t58.5 154.5t18.5 169q0 205 -106.5 335t-276.5 130
q-164 0 -263.5 -135t-99.5 -350zM422 1605.5q0 59.5 42 101.5t101.5 42t101.5 -42t42 -101.5t-42 -101.5t-101.5 -42t-101.5 42t-42 101.5zM821 1605.5q0 59.5 42 101.5t101.5 42t101.5 -42t42 -101.5t-42 -101.5t-101.5 -42t-101.5 42t-42 101.5z" />
    <glyph glyph-name="uni0086" horiz-adv-x="1343" 
d="M133 604v762h291v-852q0 -162 68 -229q63 -63 184 -64q113 0 186 74q43 43 54.5 111.5t11.5 234.5v725h282v-770q0 -193 -26.5 -296t-104.5 -181q-152 -152 -409 -152q-254 0 -408 154q-84 84 -106.5 191.5t-22.5 291.5zM328 1605.5q0 59.5 42 101.5t101 42t101 -42
t42 -101.5t-42 -101.5t-101 -42t-101 42t-42 101.5zM727 1605.5q0 59.5 42 101.5t101.5 42t101.5 -42t42 -101.5t-42 -101.5t-101.5 -42t-101.5 42t-42 101.5z" />
    <glyph glyph-name="uni0087" horiz-adv-x="1042" 
d="M82 301q0 74 25.5 133.5t63.5 96t94.5 64.5t104.5 41t109.5 20.5t93 8.5t70.5 1h29q0 88 -31 118q-41 41 -143 41q-139 0 -269 -73l-92 176q16 14 53 34.5t131.5 47t198.5 26.5q217 0 330 -112q39 -39 58.5 -95.5t21.5 -96.5t2 -128v-604h-240v72q-141 -94 -284 -95
q-150 0 -238 89.5t-88 234.5zM254 1266l453 252l104 -207l-473 -195zM324 319q0 -72 47 -102.5t108 -30.5q31 0 61.5 5.5t52 14.5t37 17t29.5 17l13 8v229h-43q-147 0 -226 -35t-79 -123z" />
    <glyph glyph-name="uni0088" horiz-adv-x="1042" 
d="M82 301q0 74 25.5 133.5t63.5 96t94.5 64.5t104.5 41t109.5 20.5t93 8.5t70.5 1h29q0 88 -31 118q-41 41 -143 41q-139 0 -269 -73l-92 176q16 14 53 34.5t131.5 47t198.5 26.5q217 0 330 -112q39 -39 58.5 -95.5t21.5 -96.5t2 -128v-604h-240v72q-141 -94 -284 -95
q-150 0 -238 89.5t-88 234.5zM250 1311l104 207l453 -252l-84 -150zM324 319q0 -72 47 -102.5t108 -30.5q31 0 61.5 5.5t52 14.5t37 17t29.5 17l13 8v229h-43q-147 0 -226 -35t-79 -123z" />
    <glyph glyph-name="uni0089" horiz-adv-x="1042" 
d="M82 301q0 74 25.5 133.5t63.5 96t94.5 64.5t104.5 41t109.5 20.5t93 8.5t70.5 1h29q0 88 -31 118q-41 41 -143 41q-139 0 -269 -73l-92 176q16 14 53 34.5t131.5 47t198.5 26.5q217 0 330 -112q39 -39 58.5 -95.5t21.5 -96.5t2 -128v-604h-240v72q-141 -94 -284 -95
q-150 0 -238 89.5t-88 234.5zM172 1262l346 258l348 -271l-92 -129l-256 146l-254 -144zM324 319q0 -72 47 -102.5t108 -30.5q31 0 61.5 5.5t52 14.5t37 17t29.5 17l13 8v229h-43q-147 0 -226 -35t-79 -123z" />
    <glyph glyph-name="uni008A" horiz-adv-x="1042" 
d="M82 301q0 74 25.5 133.5t63.5 96t94.5 64.5t104.5 41t109.5 20.5t93 8.5t70.5 1h29q0 88 -31 118q-41 41 -143 41q-139 0 -269 -73l-92 176q16 14 53 34.5t131.5 47t198.5 26.5q217 0 330 -112q39 -39 58.5 -95.5t21.5 -96.5t2 -128v-604h-240v72q-141 -94 -284 -95
q-150 0 -238 89.5t-88 234.5zM174 1308.5q0 59.5 42 101.5t101.5 42t101.5 -42t42 -101.5t-42 -101.5t-101.5 -42t-101.5 42t-42 101.5zM324 319q0 -72 47 -102.5t108 -30.5q31 0 61.5 5.5t52 14.5t37 17t29.5 17l13 8v229h-43q-147 0 -226 -35t-79 -123zM573 1308.5
q0 59.5 42 101.5t101.5 42t101.5 -42t42 -101.5t-42 -101.5t-101.5 -42t-101.5 42t-42 101.5z" />
    <glyph glyph-name="uni008B" horiz-adv-x="1042" 
d="M82 301q0 74 25.5 133.5t63.5 96t94.5 64.5t104.5 41t109.5 20.5t93 8.5t70.5 1h29q0 88 -31 118q-41 41 -143 41q-139 0 -269 -73l-92 176q16 14 53 34.5t131.5 47t198.5 26.5q217 0 330 -112q39 -39 58.5 -95.5t21.5 -96.5t2 -128v-604h-240v72q-141 -94 -284 -95
q-150 0 -238 89.5t-88 234.5zM162 1282q18 25 43.5 53.5t91 70.5t125.5 42q49 0 117.5 -32t101.5 -32q16 0 32.5 5.5t29 11.5t25.5 16t21.5 17.5t17.5 15.5t11 10l121 -121l-8 -10q-8 -10 -16.5 -18t-21.5 -22.5t-26.5 -26t-31 -25.5t-36 -24.5t-38 -19.5t-41 -14t-41.5 -5
q-49 0 -117.5 32.5t-103.5 32.5q-12 0 -27.5 -5t-29 -12.5t-28 -17.5t-22.5 -17t-18 -16l-10 -10zM324 319q0 -72 47 -102.5t108 -30.5q31 0 61.5 5.5t52 14.5t37 17t29.5 17l13 8v229h-43q-147 0 -226 -35t-79 -123z" />
    <glyph glyph-name="uni008C" horiz-adv-x="1042" 
d="M82 301q0 74 25.5 133.5t63.5 96t94.5 64.5t104.5 41t109.5 20.5t93 8.5t70.5 1h29q0 88 -31 118q-41 41 -143 41q-139 0 -269 -73l-92 176q16 14 53 34.5t131.5 47t198.5 26.5q217 0 330 -112q39 -39 58.5 -95.5t21.5 -96.5t2 -128v-604h-240v72q-141 -94 -284 -95
q-150 0 -238 89.5t-88 234.5zM295 1339.5q0 92.5 66.5 158t158.5 65.5t157.5 -65.5t65.5 -158t-65.5 -159t-157.5 -66.5t-158.5 66.5t-66.5 159zM324 319q0 -72 47 -102.5t108 -30.5q31 0 61.5 5.5t52 14.5t37 17t29.5 17l13 8v229h-43q-147 0 -226 -35t-79 -123z
M424 1341.5q0 -38.5 27.5 -66.5t66.5 -28t66.5 28t27.5 66.5t-27.5 66.5t-66.5 28t-66.5 -28t-27.5 -66.5z" />
    <glyph glyph-name="uni008D" horiz-adv-x="1019" 
d="M82 496q0 233 152.5 386.5t381.5 153.5q96 0 180.5 -27.5t120 -53t48.5 -42.5l-111 -170q-98 70 -213 70q-129 0 -206 -93t-77 -210q0 -139 71 -225t204 -86q27 0 53.5 4t50 10t44 13t37 15.5t27.5 14.5t19 10l10 6l107 -176q-12 -12 -47 -35.5t-133.5 -56.5t-206.5 -33
l-6 -63q31 6 41 6q86 0 139 -48t53 -128q0 -88 -65.5 -142.5t-151.5 -54.5q-113 0 -170 51l45 91q47 -31 109 -31q55 0 77.5 25.5t22.5 56.5q0 33 -22.5 51t-61.5 18q-45 0 -90 -22l-68 37l27 166q-164 35 -277.5 168t-113.5 344z" />
    <glyph glyph-name="uni008E" horiz-adv-x="1099" 
d="M82 498q0 233 135 385.5t348 152.5q217 0 335 -143t118 -393q0 -25 -2 -53.5t-2 -32.5h-664q-4 -74 60.5 -151t197.5 -77q117 0 269 72l90 -176q-10 -10 -51.5 -32.5t-136.5 -50.5t-195 -28q-238 0 -370 149t-132 378zM260 1266l453 252l104 -207l-473 -195zM348 612h414
q0 29 -6 59.5t-24.5 69.5t-59.5 64.5t-101 25.5q-90 0 -148.5 -60.5t-74.5 -158.5z" />
    <glyph glyph-name="uni008F" horiz-adv-x="1099" 
d="M82 498q0 233 135 385.5t348 152.5q217 0 335 -143t118 -393q0 -25 -2 -53.5t-2 -32.5h-664q-4 -74 60.5 -151t197.5 -77q117 0 269 72l90 -176q-10 -10 -51.5 -32.5t-136.5 -50.5t-195 -28q-238 0 -370 149t-132 378zM285 1311l104 207l453 -252l-84 -150zM348 612h414
q0 29 -6 59.5t-24.5 69.5t-59.5 64.5t-101 25.5q-90 0 -148.5 -60.5t-74.5 -158.5z" />
    <glyph glyph-name="uni0090" horiz-adv-x="1099" 
d="M82 498q0 233 135 385.5t348 152.5q217 0 335 -143t118 -393q0 -25 -2 -53.5t-2 -32.5h-664q-4 -74 60.5 -151t197.5 -77q117 0 269 72l90 -176q-10 -10 -51.5 -32.5t-136.5 -50.5t-195 -28q-238 0 -370 149t-132 378zM221 1262l346 258l348 -271l-92 -129l-256 146
l-254 -144zM348 612h414q0 29 -6 59.5t-24.5 69.5t-59.5 64.5t-101 25.5q-90 0 -148.5 -60.5t-74.5 -158.5z" />
    <glyph glyph-name="uni0091" horiz-adv-x="1099" 
d="M82 498q0 233 135 385.5t348 152.5q217 0 335 -143t118 -393q0 -25 -2 -53.5t-2 -32.5h-664q-4 -74 60.5 -151t197.5 -77q117 0 269 72l90 -176q-10 -10 -51.5 -32.5t-136.5 -50.5t-195 -28q-238 0 -370 149t-132 378zM223 1308.5q0 59.5 42 101.5t101.5 42t101.5 -42
t42 -101.5t-42 -101.5t-101.5 -42t-101.5 42t-42 101.5zM348 612h414q0 29 -6 59.5t-24.5 69.5t-59.5 64.5t-101 25.5q-90 0 -148.5 -60.5t-74.5 -158.5zM623 1308.5q0 59.5 42 101.5t101 42t101 -42t42 -101.5t-42 -101.5t-101 -42t-101 42t-42 101.5z" />
    <glyph glyph-name="uni0092" horiz-adv-x="524" 
d="M-16 1266l452 252l105 -207l-473 -195zM125 0v1008h276v-1008h-276z" />
    <glyph glyph-name="uni0093" horiz-adv-x="524" 
d="M-16 1311l104 207l453 -252l-84 -150zM123 0v1008h276v-1008h-276z" />
    <glyph glyph-name="uni0094" horiz-adv-x="524" 
d="M-84 1262l346 258l348 -271l-92 -129l-256 146l-254 -144zM125 0v1008h276v-1008h-276z" />
    <glyph glyph-name="uni0095" horiz-adv-x="524" 
d="M-82 1308.5q0 59.5 42 101.5t101.5 42t101.5 -42t42 -101.5t-42 -101.5t-101.5 -42t-101.5 42t-42 101.5zM123 0v1008h276v-1008h-276zM317 1308.5q0 59.5 42 101.5t101.5 42t101.5 -42t42 -101.5t-42 -101.5t-101.5 -42t-101.5 42t-42 101.5z" />
    <glyph glyph-name="uni0096" horiz-adv-x="1126" 
d="M125 0v1008h235v-76q139 104 285 104q164 0 262 -98q53 -53 79 -131t28 -122t2 -142v-543h-277v530q0 190 -43 234q-37 37 -108 37q-102 0 -187 -64v-737h-276zM213 1282q18 25 44 53.5t91.5 70.5t124.5 42q49 0 117.5 -32t101.5 -32q16 0 32.5 5.5t29 11.5t26 16
t21.5 17.5t17 15.5t11 10l121 -121l-8 -10q-8 -10 -16 -18t-21.5 -22.5t-27 -26t-31 -25.5t-35.5 -24.5t-37.5 -19.5t-41 -14t-42.5 -5q-49 0 -117.5 32.5t-103.5 32.5q-12 0 -27.5 -5t-29 -12.5t-27.5 -17.5t-22.5 -17t-18.5 -16l-10 -10z" />
    <glyph glyph-name="uni0097" horiz-adv-x="1189" 
d="M82 498q0 236 146.5 387t375.5 151q221 0 362.5 -147.5t141.5 -374.5q0 -242 -145.5 -392.5t-378.5 -150.5q-223 0 -362.5 148t-139.5 379zM317 1266l453 252l104 -207l-473 -195zM358 508q0 -137 68 -222t176 -85q106 0 167.5 82t61.5 219t-66.5 222t-173 85t-170 -83
t-63.5 -218z" />
    <glyph glyph-name="uni0098" horiz-adv-x="1189" 
d="M82 498q0 236 146.5 387t375.5 151q221 0 362.5 -147.5t141.5 -374.5q0 -242 -145.5 -392.5t-378.5 -150.5q-223 0 -362.5 148t-139.5 379zM322 1311l104 207l453 -252l-84 -150zM358 508q0 -137 68 -222t176 -85q106 0 167.5 82t61.5 219t-66.5 222t-173 85t-170 -83
t-63.5 -218z" />
    <glyph glyph-name="uni0099" horiz-adv-x="1189" 
d="M82 498q0 236 146.5 387t375.5 151q221 0 362.5 -147.5t141.5 -374.5q0 -242 -145.5 -392.5t-378.5 -150.5q-223 0 -362.5 148t-139.5 379zM260 1262l346 258l348 -271l-92 -129l-256 146l-254 -144zM358 508q0 -137 68 -222t176 -85q106 0 167.5 82t61.5 219t-66.5 222
t-173 85t-170 -83t-63.5 -218z" />
    <glyph glyph-name="uni009A" horiz-adv-x="1189" 
d="M82 498q0 236 146.5 387t375.5 151q221 0 362.5 -147.5t141.5 -374.5q0 -242 -145.5 -392.5t-378.5 -150.5q-223 0 -362.5 148t-139.5 379zM260 1308.5q0 59.5 42 101.5t101.5 42t101.5 -42t42 -101.5t-42 -101.5t-101.5 -42t-101.5 42t-42 101.5zM358 508
q0 -137 68 -222t176 -85q106 0 167.5 82t61.5 219t-66.5 222t-173 85t-170 -83t-63.5 -218zM659 1308.5q0 59.5 42 101.5t101.5 42t101.5 -42t42 -101.5t-42 -101.5t-101.5 -42t-101.5 42t-42 101.5z" />
    <glyph glyph-name="uni009B" horiz-adv-x="1189" 
d="M82 498q0 236 146.5 387t375.5 151q221 0 362.5 -147.5t141.5 -374.5q0 -242 -145.5 -392.5t-378.5 -150.5q-223 0 -362.5 148t-139.5 379zM211 1282q18 25 44 53.5t91.5 70.5t124.5 42q49 0 117.5 -32t101.5 -32q16 0 32.5 5.5t29 11.5t26 16t21.5 17.5t17 15.5t11 10
l121 -121l-8 -10q-8 -10 -16.5 -18t-21.5 -22.5t-26.5 -26t-31 -25.5t-35.5 -24.5t-37.5 -19.5t-41 -14t-42.5 -5q-49 0 -117.5 32.5t-103.5 32.5q-12 0 -27.5 -5t-29 -12.5t-27.5 -17.5t-22.5 -17t-18.5 -16l-10 -10zM358 508q0 -137 68 -222t176 -85q106 0 167.5 82
t61.5 219t-66.5 222t-173 85t-170 -83t-63.5 -218z" />
    <glyph glyph-name="uni009C" horiz-adv-x="1126" 
d="M111 465v543h276v-531q0 -190 43 -233q37 -37 109 -37q102 0 186 63v738h276v-1008h-235v76q-139 -104 -285 -105q-164 0 -262 99q-41 41 -64.5 87t-32.5 108.5t-10 94t-1 105.5zM295 1266l453 252l104 -207l-473 -195z" />
    <glyph glyph-name="uni009D" horiz-adv-x="1126" 
d="M111 465v543h276v-531q0 -190 43 -233q37 -37 109 -37q102 0 186 63v738h276v-1008h-235v76q-139 -104 -285 -105q-164 0 -262 99q-41 41 -64.5 87t-32.5 108.5t-10 94t-1 105.5zM270 1311l105 207l452 -252l-84 -150z" />
    <glyph glyph-name="uni009E" horiz-adv-x="1126" 
d="M111 465v543h276v-531q0 -190 43 -233q37 -37 109 -37q102 0 186 63v738h276v-1008h-235v76q-139 -104 -285 -105q-164 0 -262 99q-41 41 -64.5 87t-32.5 108.5t-10 94t-1 105.5zM190 1262l347 258l348 -271l-92 -129l-256 146l-254 -144z" />
    <glyph glyph-name="uni009F" horiz-adv-x="1126" 
d="M111 465v543h276v-531q0 -190 43 -233q37 -37 109 -37q102 0 186 63v738h276v-1008h-235v76q-139 -104 -285 -105q-164 0 -262 99q-41 41 -64.5 87t-32.5 108.5t-10 94t-1 105.5zM193 1308.5q0 59.5 41.5 101.5t101 42t101.5 -42t42 -101.5t-42 -101.5t-101.5 -42
t-101 42t-41.5 101.5zM592 1308.5q0 59.5 42 101.5t101.5 42t101.5 -42t42 -101.5t-42 -101.5t-101.5 -42t-101.5 42t-42 101.5z" />
    <glyph glyph-name="uni00A0" unicode="&#xa0;" horiz-adv-x="1310" 
d="M166 680v238h350l-10 448h293l-11 -448h357v-238h-361l-20 -938h-223l-21 938h-354z" />
    <glyph glyph-name="exclamdown" unicode="&#xa1;" horiz-adv-x="1312" 
d="M338 1090q0 131 93 224t224 93q133 0 226.5 -93t93.5 -224.5t-94.5 -225.5t-225.5 -94t-224 93.5t-93 226.5zM510 1089.5q0 -63.5 43 -107.5t102.5 -44t102.5 44t43 107.5t-43 108.5t-102.5 45t-102.5 -45t-43 -108.5z" />
    <glyph glyph-name="cent" unicode="&#xa2;" 
d="M213 504q0 219 128 360.5t298 169.5v215h182v-209q74 -8 141.5 -35.5t96 -49t37.5 -33.5l-111 -170q-98 70 -213 69q-129 0 -206 -93t-77 -210q0 -139 71 -225t204 -86q27 0 53.5 4t50 10t44 13.5t37 15.5t27.5 14t19 10l11 7l106 -177q-8 -8 -35.5 -27.5t-101.5 -50
t-154 -40.5v-211h-182v211q-180 25 -303 163t-123 355z" />
    <glyph glyph-name="sterling" unicode="&#xa3;" 
d="M156 0v219q199 25 198 252q0 8 -6 57h-186v228h164q-12 106 -13 159q0 225 129 354.5t359 129.5q76 0 144.5 -17.5t111.5 -38t82 -49t51 -41t22 -24.5l-135 -166q-131 102 -262 102q-106 0 -167.5 -65.5t-61.5 -184.5q0 -45 14 -159h397v-228h-372q4 -25 4 -47
q0 -168 -86 -243h653v-238h-1040z" />
    <glyph glyph-name="yen" unicode="&#xa5;" horiz-adv-x="909" 
d="M219 569.5q0 98.5 68.5 167t167 68.5t167 -68.5t68.5 -167t-68.5 -167t-167 -68.5t-167 68.5t-68.5 167z" />
    <glyph glyph-name="section" unicode="&#xa7;" horiz-adv-x="1185" 
d="M125 0v1028q0 231 117 352q123 127 331 127q193 0 312 -102t119 -270q0 -84 -34 -150.5t-76 -98.5t-76 -65t-34 -55q0 -16 19 -35q16 -16 75.5 -55t103.5 -74t83 -106.5t39 -159.5q0 -162 -107.5 -259t-277.5 -97q-37 0 -71 3t-56.5 7t-46 11t-35.5 11t-25.5 10.5
t-15.5 6.5l76 215q86 -29 137 -29q74 0 114 30.5t40 82t-45 96.5q-29 29 -117 84t-127 94q-53 53 -53 127q0 57 36.5 109.5t81.5 87.5t82 91t37 117.5t-41 101.5t-106 40q-45 0 -79 -15.5t-54.5 -45t-32.5 -59.5t-17.5 -74t-6.5 -70.5t-1 -67.5v-944h-268z" />
    <glyph glyph-name="copyright" unicode="&#xa9;" horiz-adv-x="1603" 
d="M94 682q0 293 209 501t500 208q293 0 499.5 -211t206.5 -498q0 -293 -207.5 -500t-498.5 -207q-293 0 -501 208t-208 499zM272 682q0 -217 156 -371.5t375 -154.5t373.5 153.5t154.5 372.5t-154.5 373.5t-373.5 154.5t-375 -154.5t-156 -373.5zM449 688
q0 172 112.5 283.5t280.5 111.5q160 0 243 -84l-69 -104q-78 49 -154 49q-109 0 -171 -75.5t-62 -170.5q0 -111 58 -181.5t169 -70.5q78 0 174 56l68 -109q-8 -8 -36 -25.5t-95.5 -40t-139.5 -22.5q-170 0 -274 107.5t-104 275.5z" />
    <glyph glyph-name="ordfeminine" unicode="&#xaa;" horiz-adv-x="1722" 
d="M94 1217v149h600v-149h-209v-576h-180v576h-211zM803 641l67 725h183l166 -477l155 477h185l69 -725h-170l-35 434l-141 -434h-143l-146 434l-28 -434h-162z" />
    <glyph glyph-name="guillemotleft" unicode="&#xab;" horiz-adv-x="712" 
d="M78 1266l452 252l105 -207l-473 -195z" />
    <glyph glyph-name="logicalnot" unicode="&#xac;" horiz-adv-x="825" 
d="M70 1308.5q0 59.5 42 101.5t101 42t101 -42t42 -101.5t-42 -101.5t-101 -42t-101 42t-42 101.5zM469 1308.5q0 59.5 42 101.5t101.5 42t101.5 -42t42 -101.5t-42 -101.5t-101.5 -42t-101.5 42t-42 101.5z" />
    <glyph glyph-name="uni00AD" unicode="&#xad;" horiz-adv-x="1320" 
d="M100 244v229h412l80 131h-492v230h625l127 194l156 -98l-58 -96h271v-230h-404l-80 -131h484v-229h-619l-131 -201l-154 98l62 103h-279z" />
    <glyph glyph-name="registered" unicode="&#xae;" horiz-adv-x="1880" 
d="M20 0l803 1366h942v-233h-540v-318h508v-229h-508v-348h557v-238h-844v289h-461l-160 -289h-297zM604 526h334v604z" />
    <glyph glyph-name="macron" unicode="&#xaf;" horiz-adv-x="1519" 
d="M94 694q0 315 184.5 510t481.5 195q150 0 252 -45l98 174l203 -107l-105 -186q88 -76 152.5 -211t64.5 -330q0 -330 -184 -528.5t-479 -198.5q-127 0 -242 41l-100 -174l-201 107l107 182q-232 202 -232 571zM387 676q0 -186 80 -299l428 756q-86 29 -145 28
q-164 0 -263.5 -135t-99.5 -350zM643 233q51 -23 123 -22q100 0 175 44t115 117.5t58.5 154.5t18.5 169q0 102 -25 178t-45 105z" />
    <glyph glyph-name="degree" unicode="&#xb0;" horiz-adv-x="1714" 
d="M145 563q0 137 96.5 229.5t239.5 92.5q184 0 377 -178q186 186 385 186q143 0 234.5 -87t91.5 -224q0 -135 -98.5 -230.5t-237.5 -95.5q-31 0 -62.5 5t-60.5 16.5t-55.5 22.5t-51 27.5t-44 30t-37 28.5t-28.5 25.5t-22 20.5l-12 10q-197 -197 -379 -196q-135 0 -235.5 95
t-100.5 222zM352 571q0 -51 38 -85.5t91 -34.5q20 0 43 6t44.5 16t41 20.5t39 24.5t30.5 23.5t26 19.5l12 12q-2 2 -17.5 15.5t-29 24t-37 26.5t-44 26.5t-48 18.5t-54.5 8q-61 0 -98 -34t-37 -87zM999 578q156 -117 236 -117q55 0 92 31.5t37 87.5q0 53 -39 87.5t-100 34.5
q-101 1 -226 -124z" />
    <glyph glyph-name="plusminus" unicode="&#xb1;" 
d="M121 0v221h1077v-221h-1077zM121 711v229h424v403h229v-403h424v-229h-424v-404h-229v404h-424z" />
    <glyph glyph-name="uni00B2" unicode="&#xb2;" horiz-adv-x="1320" 
d="M121 0v221h1077v-221h-1077zM121 739v179l989 450l90 -213l-723 -328l723 -333l-90 -205z" />
    <glyph glyph-name="uni00B3" unicode="&#xb3;" horiz-adv-x="1320" 
d="M121 494l723 333l-723 328l90 213l989 -450v-179l-989 -450zM123 0v221h1077v-221h-1077z" />
    <glyph glyph-name="uni00B5" unicode="&#xb5;" horiz-adv-x="1140" 
d="M125 -258v1266h276v-531q0 -190 43 -233q37 -37 103 -37q109 0 192 63v738h277v-1008h-236v72q-16 -14 -45.5 -33t-99.5 -43.5t-139 -24.5q-84 0 -136 37v-266h-235z" />
    <glyph glyph-name="paragraph" unicode="&#xb6;" horiz-adv-x="1277" 
d="M145 489q0 236 131.5 391.5t348.5 155.5q117 0 206 -45q0 100 -77.5 191.5t-221.5 91.5q-53 0 -116.5 -20.5t-96 -38t-51.5 -29.5l-108 186q23 18 64.5 44t135 58.5t183.5 32.5q279 0 434.5 -200.5t155.5 -606.5q0 -340 -133.5 -536.5t-372.5 -196.5q-213 0 -347.5 146.5
t-134.5 375.5zM424 500q0 -135 55.5 -216t143.5 -81q104 0 164.5 113.5t60.5 340.5q0 57 -6 101q-68 45 -183 45q-109 0 -172 -81t-63 -222z" />
    <glyph glyph-name="periodcentered" unicode="&#xb7;" horiz-adv-x="1175" 
d="M145 0v193l344 499l-344 477v197h885v-236h-516l297 -423l-324 -471h543v-236h-885z" />
    <glyph glyph-name="uni00B9" unicode="&#xb9;" horiz-adv-x="1396" 
d="M145 786v222h1090v-222h-150v-407v-17q0 -59 3.5 -85.5t25 -49t66.5 -22.5q35 0 71 8v-203q-102 -31 -184 -30q-41 0 -76 7t-59.5 15t-45 28.5t-32.5 34t-21.5 44t-14.5 44t-7 51.5t-2 49v52v47v434h-248v-786h-276v786h-140z" />
    <glyph glyph-name="ordmasculine" unicode="&#xba;" horiz-adv-x="1198" 
d="M145 -420l74 193q59 -23 98 -23q68 0 105 37q39 39 39 147v1145q0 119 20.5 195t85.5 141q92 92 267 92q51 0 102 -12t81 -24.5t36 -20.5l-74 -193q-59 23 -98 23q-68 0 -105 -37q-39 -39 -39 -147v-1145q0 -119 -20.5 -194.5t-85.5 -141.5q-92 -92 -266 -92
q-51 0 -102.5 12t-81.5 24.5t-36 20.5z" />
    <glyph glyph-name="guillemotright" unicode="&#xbb;" horiz-adv-x="927" 
d="M129 854q0 270 418 270h20q0 66 -22 88q-31 31 -107 31q-111 0 -198 -53l-70 131q14 10 40 25.5t96.5 35t148.5 19.5q162 0 245 -84q29 -29 43.5 -70t16.5 -72.5t2 -95.5v-450h-178v53l-13 -8q-12 -8 -23 -14.5t-31.5 -15.5t-41 -15t-48.5 -11.5t-56 -5.5
q-111 0 -176.5 68t-65.5 174zM309 866q0 -98 115 -98q84 0 143 45v172h-30q-228 0 -228 -119z" />
    <glyph glyph-name="questiondown" unicode="&#xbf;" horiz-adv-x="1189" 
d="M82 498q0 236 146.5 387t375.5 151q100 0 180 -28l86 145l164 -96l-90 -148q63 -53 113.5 -154.5t50.5 -240.5q0 -242 -145.5 -392.5t-378.5 -150.5q-106 0 -168 27l-86 -148l-168 93l88 149q-68 53 -118 158t-50 248zM342 485q0 -82 39 -172l291 502q-37 14 -70 14
q-123 0 -191.5 -92t-68.5 -252zM524 190q41 -10 72 -10q125 0 190.5 89t65.5 243q0 96 -39 174z" />
    <glyph glyph-name="Agrave" unicode="&#xc0;" horiz-adv-x="1101" 
d="M119 10q0 154 96 250q47 47 155.5 113.5t114.5 72.5q29 29 29 144v16h250q8 -49 8 -94q0 -135 -61 -197q-31 -33 -123 -88t-131 -94q-53 -53 -54 -123q0 -72 53.5 -114.5t147.5 -42.5q150 0 301 108l117 -176q-27 -20 -69 -48t-157.5 -71t-226.5 -43q-203 0 -326.5 105.5
t-123.5 281.5zM473 866.5q0 71.5 49 120.5t119 49q72 0 121 -49t49 -121q0 -70 -49 -119t-121 -49t-120 48.5t-48 120z" />
    <glyph glyph-name="Aacute" unicode="&#xc1;" horiz-adv-x="794" 
d="M229 866.5q0 71.5 49.5 120.5t119 49t119.5 -49t50 -121q0 -70 -49 -119t-121 -49q-70 0 -119 48.5t-49 120zM242 -344l43 950h227l43 -950h-313z" />
    <glyph glyph-name="Acircumflex" unicode="&#xc2;" horiz-adv-x="1320" 
d="M123 653v234h1075v-533h-250v299h-825z" />
    <glyph glyph-name="Atilde" unicode="&#xc3;" horiz-adv-x="1685" 
d="M145 850l478 164l254 -668l432 1174l231 -82l-543 -1438h-258l-284 725l-240 -82z" />
    <glyph glyph-name="Adieresis" unicode="&#xc4;" 
d="M25 -399l81 202q86 -35 142 -34q70 0 102 32q39 39 72 205l106 522h-254l45 228h259l36 194q29 145 54.5 219t72.5 121q109 109 277 109q150 0 278 -74l-77 -201q-111 37 -150 37q-86 0 -116.5 -50t-61.5 -202l-31 -153h293l-49 -228h-293l-104 -546q-51 -268 -136 -353
q-106 -106 -270 -106q-151 0 -276 78z" />
    <glyph glyph-name="Aring" unicode="&#xc5;" 
d="M162 328l6 12q6 10 13 18.5t18.5 24.5t25 28.5t31.5 28t39.5 27.5t46.5 22.5t54.5 15.5t62.5 5q92 0 223 -58.5t184 -58.5q16 0 30.5 3t28 11.5t22.5 13.5t23 18l17 18q4 4 17 18l12 14l141 -108q-125 -178 -287 -178q-88 0 -224 58t-191 58q-16 0 -34 -4t-31 -12
t-24.5 -15t-21.5 -18.5t-16 -17.5t-13 -14l-8 -11zM162 694l6 11q6 12 13 20t18.5 24.5t25 29t31.5 27.5t39.5 27.5t46.5 22.5t54.5 15.5t62.5 5.5q92 0 223 -58.5t184 -58.5q16 0 30.5 3t28 11t22.5 13.5t23 18.5l17 17q4 4 17 19l12 14l141 -108q-125 -178 -287 -179
q-88 0 -224 58.5t-191 58.5q-16 0 -34 -4t-31 -12t-24.5 -15.5t-21.5 -18.5t-16 -17.5t-13 -16.5l-8 -8z" />
    <glyph glyph-name="AE" unicode="&#xc6;" horiz-adv-x="1478" 
d="M145 0l471 1366h244l473 -1366h-1188zM475 227h512l-256 756z" />
    <glyph glyph-name="Ccedilla" unicode="&#xc7;" horiz-adv-x="1112" 
d="M125 500l305 401l164 -110l-166 -291l166 -305l-166 -95zM518 500l305 401l164 -110l-166 -291l166 -305l-166 -95z" />
    <glyph glyph-name="Egrave" unicode="&#xc8;" horiz-adv-x="1112" 
d="M125 195l166 305l-166 291l164 110l305 -401l-303 -400zM518 195l166 305l-166 291l164 110l305 -401l-303 -400z" />
    <glyph glyph-name="Eacute" unicode="&#xc9;" horiz-adv-x="1802" 
d="M125 159.5q0 71.5 51 123t123 51.5t123 -51.5t51 -123t-51 -122.5t-123 -51t-123 51t-51 122.5zM727 159.5q0 71.5 51 123t123 51.5t123 -51.5t51 -123t-51 -122.5t-123 -51t-123 51t-51 122.5zM1329 159.5q0 71.5 51.5 123t123 51.5t122.5 -51.5t51 -123t-51 -122.5
t-122.5 -51t-123 51t-51.5 122.5z" />
    <glyph glyph-name="Ecircumflex" unicode="&#xca;" horiz-adv-x="512" 
 />
    <glyph glyph-name="Edieresis" unicode="&#xcb;" horiz-adv-x="1349" 
d="M33 0l495 1366h291l498 -1366h-299l-100 285h-492l-100 -285h-293zM385 1655l104 207l453 -252l-84 -150zM498 508h344l-172 549z" />
    <glyph glyph-name="Igrave" unicode="&#xcc;" horiz-adv-x="1349" 
d="M33 0l495 1366h291l498 -1366h-299l-100 285h-492l-100 -285h-293zM297 1583q18 25 44 53.5t91.5 70.5t124.5 42q49 0 117.5 -31.5t101.5 -31.5q16 0 32.5 5t29 11t26 16.5t21.5 17.5t17 15t11 10l121 -121l-8 -10q-8 -10 -16.5 -18t-21.5 -22.5t-26.5 -26t-31 -25.5
t-35.5 -24.5t-37.5 -19.5t-41 -14t-42.5 -5q-49 0 -117.5 32.5t-103.5 32.5q-12 0 -27.5 -5t-29 -12t-27.5 -17.5t-22.5 -17.5t-18.5 -18l-10 -8zM498 508h344l-172 549z" />
    <glyph glyph-name="Iacute" unicode="&#xcd;" horiz-adv-x="1519" 
d="M94 694q0 315 184.5 510t481.5 195q299 0 482 -196.5t183 -508.5q0 -330 -184 -528.5t-479 -198.5q-297 0 -482.5 201.5t-185.5 525.5zM385 1583q18 25 44 53.5t91.5 70.5t124.5 42q49 0 117.5 -31.5t101.5 -31.5q16 0 32.5 5t29 11t26 16.5t21.5 17.5t17 15t11 10
l121 -121l-8 -10q-8 -10 -16 -18t-21.5 -22.5t-27 -26t-31 -25.5t-35.5 -24.5t-37.5 -19.5t-41 -14t-42.5 -5q-49 0 -117.5 32.5t-103.5 32.5q-12 0 -27.5 -5t-29 -12t-27.5 -17.5t-22.5 -17.5t-18.5 -18l-10 -8zM387 676q0 -211 107.5 -338t271.5 -127q100 0 175 44
t115 117.5t58.5 154.5t18.5 169q0 205 -106.5 335t-276.5 130q-164 0 -263.5 -135t-99.5 -350z" />
    <glyph glyph-name="Icircumflex" unicode="&#xce;" horiz-adv-x="1828" 
d="M94 672q0 303 187 489q72 72 154.5 116t184 61.5t177 22.5t198.5 5h719v-233h-506v-318h473v-229h-473v-348h523v-238h-832q-117 0 -174 3t-147.5 18.5t-161 55.5t-135.5 105q-187 187 -187 490zM383 664q0 -207 117 -324q55 -55 128.5 -81t122 -29t156.5 -3h23v908h-78
q-229 0 -349 -121t-120 -350z" />
    <glyph glyph-name="Idieresis" unicode="&#xcf;" horiz-adv-x="1839" 
d="M63 498q0 236 147.5 387t379.5 151q35 0 68.5 -4t61.5 -10t54.5 -16.5t47 -19.5t41 -21.5t33.5 -22.5t26.5 -22.5t20.5 -18.5t15 -16l9 -8l12 12q10 12 19.5 21.5t29 24.5t38.5 28.5t48 28t59.5 23.5t69.5 15t80 6q217 0 335 -143t118 -393q0 -25 -2 -53.5t-2 -32.5h-664
q-4 -74 60.5 -151t197.5 -77q117 0 268 72l90 -176q-10 -10 -51 -32.5t-136 -50.5t-196 -28q-68 0 -130 14.5t-96 29t-75 46t-47 38.5t-32 34q-164 -164 -392 -164q-225 0 -365.5 148t-140.5 381zM336 496q0 -135 69.5 -218t176.5 -83q109 0 176 85t67 232q0 145 -66.5 224
t-176.5 79q-109 0 -177.5 -86t-68.5 -233zM1106 612h414q0 29 -6.5 59.5t-25 69.5t-59 64.5t-100.5 25.5q-90 0 -148.5 -60.5t-74.5 -158.5z" />
    <glyph glyph-name="Eth" unicode="&#xd0;" horiz-adv-x="1374" 
d="M152 424v229h1071v-229h-1071z" />
    <glyph glyph-name="Ntilde" unicode="&#xd1;" horiz-adv-x="2027" 
d="M152 424v229h1724v-229h-1724z" />
    <glyph glyph-name="Ograve" unicode="&#xd2;" horiz-adv-x="1011" 
d="M82 879q0 123 36 219t144 205q59 59 119 98l156 -139q-6 -6 -16.5 -15.5t-14.5 -13.5q-135 -135 -133 -342v-12h-291zM475 879q0 123 36 219t144 205q59 59 119 98l156 -139q-6 -6 -16.5 -15.5t-14.5 -13.5q-135 -135 -133 -342v-12h-291z" />
    <glyph glyph-name="Oacute" unicode="&#xd3;" horiz-adv-x="1011" 
d="M82 983q6 6 16.5 15.5t14.5 13.5q135 135 133 342v12h291q0 -123 -36 -219t-145 -205q-59 -59 -118 -98zM475 983q6 6 16.5 15.5t14.5 13.5q135 135 133 342v12h291q0 -123 -36 -219t-144 -205q-59 -59 -119 -98z" />
    <glyph glyph-name="Ocircumflex" unicode="&#xd4;" horiz-adv-x="618" 
d="M82 879q0 123 36 219t144 205q59 59 119 98l156 -139q-6 -6 -16.5 -15.5t-14.5 -13.5q-135 -135 -133 -342v-12h-291z" />
    <glyph glyph-name="Otilde" unicode="&#xd5;" horiz-adv-x="618" 
d="M82 983q6 6 16.5 15.5t14.5 13.5q135 135 133 342v12h291q0 -123 -36 -219t-145 -205q-59 -59 -118 -98z" />
    <glyph glyph-name="Odieresis" unicode="&#xd6;" horiz-adv-x="1320" 
d="M100 424v229h1121v-229h-1121zM494 152q0 74 49 124t118.5 50t118.5 -50.5t49 -123.5q0 -72 -50 -123.5t-117 -51.5q-70 0 -119 51.5t-49 123.5zM494 913q0 74 49 124t118.5 50t118.5 -50t49 -124q0 -72 -50 -123t-117 -51q-70 0 -119 51t-49 123z" />
    <glyph glyph-name="multiply" unicode="&#xd7;" horiz-adv-x="1355" 
d="M145 682l437 684h182l446 -684l-446 -682h-182zM412 682l262 -408l274 408l-274 414z" />
    <glyph glyph-name="Oslash" unicode="&#xd8;" horiz-adv-x="1183" 
d="M-12 -414l82 197q82 -35 155 -35q86 0 137 51q43 43 101 201l-422 1008h293l270 -707l252 707h272l-399 -1018q-61 -156 -102 -234t-92 -129q-104 -104 -295 -104q-125 0 -252 63zM260 1308.5q0 59.5 42 101.5t101.5 42t101.5 -42t42 -101.5t-42 -101.5t-101.5 -42
t-101.5 42t-42 101.5zM659 1308.5q0 59.5 42 101.5t101.5 42t101.5 -42t42 -101.5t-42 -101.5t-101.5 -42t-101.5 42t-42 101.5z" />
    <glyph glyph-name="Ugrave" unicode="&#xd9;" horiz-adv-x="1249" 
d="M55 1366h295l289 -592l289 592h266l-430 -821v-545h-279v545zM295 1605.5q0 59.5 42 101.5t101.5 42t101.5 -42t42 -101.5t-42 -101.5t-101.5 -42t-101.5 42t-42 101.5zM694 1605.5q0 59.5 42 101.5t101.5 42t101.5 -42t42 -101.5t-42 -101.5t-101.5 -42t-101.5 42
t-42 101.5z" />
    <glyph glyph-name="Uacute" unicode="&#xda;" horiz-adv-x="1361" 
d="M141 6l938 1434l142 -94l-938 -1436z" />
    <glyph glyph-name="Ucircumflex" unicode="&#xdb;" 
d="M113 438v185h137q-2 31 -2 63.5t2 56.5h-137v185h151q4 27 15.5 69.5t49.5 117.5t92 134.5t153.5 104.5t222.5 45q80 0 152.5 -17.5t116.5 -39t85 -52t52 -43t22 -24.5l-129 -156l-15 12q-14 12 -24 18.5t-30.5 19.5t-41 22.5t-46.5 18.5t-57.5 13.5t-64.5 4.5
q-84 0 -143.5 -32t-88 -82t-38.5 -78t-15 -56h439v-185h-459q-2 -25 -2 -57l2 -63h459v-185h-434q2 -16 5 -34.5t21.5 -59.5t47 -70.5t85 -54t129.5 -24.5q158 0 277 98l131 -164q-162 -162 -434 -162q-121 0 -219.5 43t-153.5 102.5t-93 131t-51.5 118t-15.5 76.5h-153z
" />
    <glyph glyph-name="Udieresis" unicode="&#xdc;" horiz-adv-x="718" 
d="M125 500l305 401l164 -110l-166 -291l166 -305l-166 -95z" />
    <glyph glyph-name="Yacute" unicode="&#xdd;" horiz-adv-x="718" 
d="M125 195l166 305l-166 291l164 110l305 -401l-303 -400z" />
    <glyph glyph-name="Thorn" unicode="&#xde;" horiz-adv-x="1251" 
d="M76 778v230h164v49q0 131 22.5 210t83.5 140q100 100 281 100q80 0 151.5 -23.5t102 -44t34.5 -28.5l-104 -180q-82 49 -145 49q-43 0 -73 -14.5t-44 -33t-22.5 -52t-9.5 -56t-1 -63.5v-53h610v-1008h-276v778h-334v-778h-276v778h-164z" />
    <glyph glyph-name="germandbls" unicode="&#xdf;" horiz-adv-x="1251" 
d="M76 778v230h164v49q0 131 22.5 210t83.5 140q100 100 262 100q104 0 183 -39l-68 -202q-43 14 -68 14q-47 0 -77.5 -18.5t-43 -55.5t-15.5 -66.5t-3 -78.5v-53h334v475h276v-1483h-276v778h-334v-778h-276v778h-164z" />
    <glyph glyph-name="agrave" unicode="&#xe0;" horiz-adv-x="1310" 
d="M166 680v238h350l-10 448h293l-11 -448h357v-238h-365l-2 -180h359v-238h-363l-10 -520h-223l-11 520h-356v238h352l-2 180h-358z" />
    <glyph glyph-name="aacute" unicode="&#xe1;" horiz-adv-x="587" 
d="M125 524.5q0 69.5 49 118.5t121 49q70 0 119 -49t49 -119q0 -72 -49 -121t-119 -49t-120 50.5t-50 120z" />
    <glyph glyph-name="acircumflex" unicode="&#xe2;" horiz-adv-x="618" 
d="M82 -109q6 6 16.5 15.5t14.5 13.5q135 135 133 342v12h291q0 -123 -36 -219t-145 -205q-59 -59 -118 -98z" />
    <glyph glyph-name="atilde" unicode="&#xe3;" horiz-adv-x="1015" 
d="M82 -109q6 6 16.5 15.5t14.5 13.5q135 135 133 342v12h291q0 -123 -36 -219t-145 -205q-59 -59 -118 -98zM479 -109q6 6 16.5 15.5t14.5 13.5q135 135 133 342v12h291q0 -123 -36 -219t-144 -205q-59 -59 -119 -98z" />
    <glyph glyph-name="adieresis" unicode="&#xe4;" horiz-adv-x="2258" 
d="M92 1038q0 164 83 264.5t226.5 100.5t228.5 -100.5t85 -262.5q0 -168 -84 -268t-230 -100q-143 0 -226 100t-83 266zM236 6l938 1434l141 -94l-938 -1436zM260 1036q0 -111 38 -168t101 -57q147 0 148 223q0 113 -39 170.5t-102.5 57.5t-104.5 -58.5t-41 -167.5zM844 332
q0 164 83 264t226 100t228 -100t85 -262q0 -168 -84 -268.5t-229 -100.5q-143 0 -226 100.5t-83 266.5zM1012 330q0 -111 37.5 -168.5t101.5 -57.5q147 0 147 224q0 113 -38.5 170t-102 57t-104.5 -58t-41 -167zM1544 332q0 164 83 264t226.5 100t228.5 -100t85 -262
q0 -168 -84 -268.5t-230 -100.5q-143 0 -226 100.5t-83 266.5zM1712 330q0 -111 38 -168.5t101 -57.5q147 0 148 224q0 113 -39 170t-102.5 57t-104.5 -58t-41 -167z" />
    <glyph glyph-name="aring" unicode="&#xe5;" horiz-adv-x="1349" 
d="M33 0l495 1366h291l498 -1366h-299l-100 285h-492l-100 -285h-293zM324 1602l346 258l348 -271l-92 -129l-256 146l-254 -144zM498 508h344l-172 549z" />
    <glyph glyph-name="ae" unicode="&#xe6;" horiz-adv-x="1087" 
d="M145 0v1366h828v-233h-541v-318h508v-229h-508v-348h557v-238h-844zM197 1602l346 258l348 -271l-92 -129l-256 146l-254 -144z" />
    <glyph glyph-name="ccedilla" unicode="&#xe7;" horiz-adv-x="1349" 
d="M33 0l495 1366h291l498 -1366h-299l-100 285h-492l-100 -285h-293zM344 1610l453 252l104 -207l-473 -195zM498 508h344l-172 549z" />
    <glyph glyph-name="egrave" unicode="&#xe8;" horiz-adv-x="1087" 
d="M145 0v1366h828v-233h-541v-318h508v-229h-508v-348h557v-238h-844zM221 1605.5q0 59.5 42 101.5t101.5 42t101.5 -42t42 -101.5t-42 -101.5t-101.5 -42t-101.5 42t-42 101.5zM621 1605.5q0 59.5 42 101.5t101 42t101 -42t42 -101.5t-42 -101.5t-101 -42t-101 42
t-42 101.5z" />
    <glyph glyph-name="eacute" unicode="&#xe9;" horiz-adv-x="1087" 
d="M145 0v1366h828v-233h-541v-318h508v-229h-508v-348h557v-238h-844zM262 1655l105 207l452 -252l-84 -150z" />
    <glyph glyph-name="ecircumflex" unicode="&#xea;" horiz-adv-x="581" 
d="M29 1610l452 252l105 -207l-473 -195zM170 0v1366h291v-1366h-291z" />
    <glyph glyph-name="edieresis" unicode="&#xeb;" horiz-adv-x="581" 
d="M-20 1602l346 258l348 -271l-92 -129l-256 146l-254 -144zM170 0v1366h291v-1366h-291z" />
    <glyph glyph-name="igrave" unicode="&#xec;" horiz-adv-x="581" 
d="M-14 1605.5q0 59.5 42 101.5t101 42t101 -42t42 -101.5t-42 -101.5t-101 -42t-101 42t-42 101.5zM170 0v1366h291v-1366h-291zM385 1605.5q0 59.5 42 101.5t101.5 42t101.5 -42t42 -101.5t-42 -101.5t-101.5 -42t-101.5 42t-42 101.5z" />
    <glyph glyph-name="iacute" unicode="&#xed;" horiz-adv-x="581" 
d="M39 1655l104 207l453 -252l-84 -150zM170 0v1366h291v-1366h-291z" />
    <glyph glyph-name="icircumflex" unicode="&#xee;" horiz-adv-x="1519" 
d="M94 694q0 315 184.5 510t481.5 195q299 0 482 -196.5t183 -508.5q0 -330 -184 -528.5t-479 -198.5q-297 0 -482.5 201.5t-185.5 525.5zM387 676q0 -211 107.5 -338t271.5 -127q100 0 175 44t115 117.5t58.5 154.5t18.5 169q0 205 -106.5 335t-276.5 130
q-164 0 -263.5 -135t-99.5 -350zM463 1610l452 252l105 -207l-473 -195z" />
    <glyph glyph-name="idieresis" unicode="&#xef;" horiz-adv-x="1519" 
d="M94 694q0 315 184.5 510t481.5 195q299 0 482 -196.5t183 -508.5q0 -330 -184 -528.5t-479 -198.5q-297 0 -482.5 201.5t-185.5 525.5zM387 676q0 -211 107.5 -338t271.5 -127q100 0 175 44t115 117.5t58.5 154.5t18.5 169q0 205 -106.5 335t-276.5 130
q-164 0 -263.5 -135t-99.5 -350zM416 1602l346 258l348 -271l-92 -129l-256 146l-254 -144z" />
    <glyph glyph-name="eth" unicode="&#xf0;" horiz-adv-x="1851" 
d="M94 795q0 344 243 584.5t589 240.5t588.5 -240.5t242.5 -584.5t-242.5 -584t-588.5 -240t-589 240t-243 584zM309 797q0 -111 35 -207t93.5 -163t117.5 -113t127 -76v370h-139v176h139v62q0 113 19.5 180.5t72.5 120.5q86 86 242 86q70 0 131 -20.5t87 -38t30 -25.5
l-90 -154q-4 4 -21.5 13.5t-47.5 18.5t-56 9q-45 0 -73 -15t-39 -48t-13 -56.5t-2 -68.5v-64h254v-176h-254v-424q258 0 438 179.5t180 433.5t-180 433t-434 179q-256 0 -436.5 -179t-180.5 -433z" />
    <glyph glyph-name="ntilde" unicode="&#xf1;" horiz-adv-x="1519" 
d="M94 694q0 315 184.5 510t481.5 195q299 0 482 -196.5t183 -508.5q0 -330 -184 -528.5t-479 -198.5q-297 0 -482.5 201.5t-185.5 525.5zM387 676q0 -211 107.5 -338t271.5 -127q100 0 175 44t115 117.5t58.5 154.5t18.5 169q0 205 -106.5 335t-276.5 130
q-164 0 -263.5 -135t-99.5 -350zM494 1655l104 207l453 -252l-84 -150z" />
    <glyph glyph-name="ograve" unicode="&#xf2;" horiz-adv-x="1343" 
d="M133 604v762h291v-852q0 -162 68 -229q63 -63 184 -64q113 0 186 74q43 43 54.5 111.5t11.5 234.5v725h282v-770q0 -193 -26.5 -296t-104.5 -181q-152 -152 -409 -152q-254 0 -408 154q-84 84 -106.5 191.5t-22.5 291.5zM393 1610l453 252l104 -207l-473 -195z" />
    <glyph glyph-name="oacute" unicode="&#xf3;" horiz-adv-x="1343" 
d="M133 604v762h291v-852q0 -162 68 -229q63 -63 184 -64q113 0 186 74q43 43 54.5 111.5t11.5 234.5v725h282v-770q0 -193 -26.5 -296t-104.5 -181q-152 -152 -409 -152q-254 0 -408 154q-84 84 -106.5 191.5t-22.5 291.5zM324 1602l346 258l348 -271l-92 -129l-256 146
l-254 -144z" />
    <glyph glyph-name="ocircumflex" unicode="&#xf4;" horiz-adv-x="1343" 
d="M133 604v762h291v-852q0 -162 68 -229q63 -63 184 -64q113 0 186 74q43 43 54.5 111.5t11.5 234.5v725h282v-770q0 -193 -26.5 -296t-104.5 -181q-152 -152 -409 -152q-254 0 -408 154q-84 84 -106.5 191.5t-22.5 291.5zM381 1655l104 207l453 -252l-84 -150z" />
    <glyph glyph-name="otilde" unicode="&#xf5;" horiz-adv-x="526" 
d="M125 0v1008h276v-1008h-276z" />
    <glyph glyph-name="odieresis" unicode="&#xf6;" horiz-adv-x="811" 
d="M80 1262l346 258l348 -271l-92 -129l-256 146l-254 -144z" />
    <glyph glyph-name="divide" unicode="&#xf7;" horiz-adv-x="815" 
d="M78 1282q18 25 43.5 53.5t91.5 70.5t125 42q49 0 117.5 -32t101.5 -32q16 0 32.5 5.5t29 11.5t25.5 16t21.5 17.5t17.5 15.5t11 10l121 -121l-8 -10q-8 -10 -16.5 -18t-21.5 -22.5t-26.5 -26t-31 -25.5t-36 -24.5t-38 -19.5t-41 -14t-41.5 -5q-49 0 -117.5 32.5
t-103.5 32.5q-12 0 -27.5 -5t-29 -12.5t-27.5 -17.5t-22.5 -17t-18.5 -16l-10 -10z" />
    <glyph glyph-name="oslash" unicode="&#xf8;" horiz-adv-x="802" 
d="M78 1223v172h725v-172h-725z" />
    <glyph glyph-name="ugrave" unicode="&#xf9;" horiz-adv-x="733" 
d="M78 1477h184q12 -129 121 -129t121 129h184q-4 -145 -86 -231.5t-219 -86.5t-219 86.5t-86 231.5z" />
    <glyph glyph-name="uacute" unicode="&#xfa;" horiz-adv-x="425" 
d="M70 1308.5q0 59.5 42 101.5t101 42t101 -42t42 -101.5t-42 -101.5t-101 -42t-101 42t-42 101.5z" />
    <glyph glyph-name="ucircumflex" unicode="&#xfb;" horiz-adv-x="600" 
d="M76 1339.5q0 92.5 66.5 158t158.5 65.5t157.5 -65.5t65.5 -158t-65.5 -159t-157.5 -66.5t-158.5 66.5t-66.5 159zM205 1341.5q0 -38.5 27.5 -66.5t66.5 -28t66.5 28t27.5 66.5t-27.5 66.5t-66.5 28t-66.5 -28t-27.5 -66.5z" />
    <glyph glyph-name="udieresis" unicode="&#xfc;" horiz-adv-x="526" 
d="M70 -408l45 91q47 -31 108 -31q55 0 78 25.5t23 56.5q0 33 -22.5 51t-61.5 18q-45 0 -90 -22l-68 37l29 182h122l-10 -92q31 6 41 6q86 0 139.5 -48t53.5 -128q0 -88 -65.5 -142.5t-151.5 -54.5q-113 0 -170 51z" />
    <glyph glyph-name="yacute" unicode="&#xfd;" horiz-adv-x="690" 
d="M72 1145l123 375l235 -82l-164 -359zM397 1145l123 375l232 -82l-160 -359z" />
    <glyph glyph-name="thorn" unicode="&#xfe;" horiz-adv-x="577" 
d="M70 -229q0 135 137 225l145 -43q-6 -4 -31.5 -22.5t-35 -26.5t-29.5 -26.5t-28.5 -32t-15.5 -34t-7 -40.5q0 -47 28.5 -78t75.5 -31q23 0 49.5 6t44 13.5t36 16.5t20.5 9l49 -98q-102 -68 -219 -68q-100 0 -159.5 63t-59.5 167z" />
    <glyph glyph-name="ydieresis" unicode="&#xff;" horiz-adv-x="1062" 
d="M219 1391l92 129l256 -146l254 144l92 -140l-346 -258z" />
    <glyph glyph-name="OE" unicode="&#x152;" horiz-adv-x="927" 
d="M82 997q0 176 108.5 289t280.5 113q166 0 270.5 -109.5t104.5 -279.5q0 -178 -108.5 -292t-282.5 -114q-166 0 -269.5 109.5t-103.5 283.5zM295 1003.5q0 -98.5 49 -159t125 -60.5t120 57.5t44 157.5q0 98 -48 160t-124 62t-121 -59.5t-45 -158z" />
    <glyph glyph-name="oe" unicode="&#x153;" horiz-adv-x="1703" 
d="M145 0v238h234l-10 8q-8 8 -19.5 18t-27 27.5t-31 40t-32.5 50.5t-31.5 63.5t-26 75.5t-17.5 90.5t-6 103.5q0 305 186.5 494.5t487.5 189.5t487.5 -189.5t186.5 -494.5q0 -53 -6.5 -102.5t-17.5 -89.5t-24.5 -74.5t-29.5 -63.5t-31.5 -50.5t-32 -40t-26.5 -28.5l-21 -20
l-10 -8h232v-238h-598v199q88 39 139 88q139 139 139 393q0 219 -106.5 348t-280.5 129t-280.5 -129t-106.5 -348q0 -106 26.5 -193.5t58.5 -134.5t80 -86t66.5 -47t42.5 -18l4 -2v-199h-598z" />
    <glyph glyph-name="Ydieresis" unicode="&#x178;" horiz-adv-x="1697" 
d="M82 305q0 82 30.5 145.5t88 100.5t113 60.5t129 32.5t113.5 11t87 2h29v9q0 88 -31 118q-41 41 -143 41q-139 0 -269 -73l-92 176q152 109 383 108q215 0 332 -116q117 117 311 116q217 0 335 -143t118 -393q0 -25 -2 -53.5t-2 -32.5h-664q-4 -74 60.5 -151t197.5 -77
q117 0 269 72l90 -176q-10 -10 -51 -32.5t-136.5 -50.5t-195.5 -28q-244 0 -363 142q-162 -141 -391 -142q-150 0 -248 84t-98 250zM324 311q0 -72 47 -102.5t108 -30.5q31 0 61.5 6t54 14.5t46.5 18.5t36 18.5t23 14.5l13 8q-41 72 -41 211h-43q-147 0 -226 -35t-79 -123z
M946 612h414q0 29 -6 59.5t-24.5 69.5t-59.5 64.5t-101 25.5q-90 0 -148.5 -60.5t-74.5 -158.5z" />
    <glyph glyph-name="circumflex" unicode="&#x2c6;" horiz-adv-x="1316" 
d="M139 496l420 870h207l412 -870h-250l-264 579l-265 -579h-260z" />
    <glyph glyph-name="tilde" unicode="&#x2dc;" horiz-adv-x="485" 
d="M-497 248l6 12q6 10 13 18.5t18.5 25t25 28.5t31.5 27.5t39.5 27.5t46.5 22.5t54.5 15.5t62.5 5q92 0 223 -58.5t184 -58.5q16 0 30.5 3.5t28 11.5t22.5 13t23 19l17 17q4 4 17 18l12 15l141 -109q-125 -178 -287 -178q-88 0 -224 58.5t-191 58.5q-16 0 -34 -4t-31 -12.5
t-24.5 -15.5t-21.5 -18.5t-16 -17.5t-13 -14l-8 -10z" />
    <glyph glyph-name="uni2000" unicode="&#x2000;" horiz-adv-x="954" 
 />
    <glyph glyph-name="uni2001" unicode="&#x2001;" horiz-adv-x="1910" 
 />
    <glyph glyph-name="uni2002" unicode="&#x2002;" horiz-adv-x="954" 
 />
    <glyph glyph-name="uni2003" unicode="&#x2003;" horiz-adv-x="1910" 
 />
    <glyph glyph-name="uni2004" unicode="&#x2004;" horiz-adv-x="636" 
 />
    <glyph glyph-name="uni2005" unicode="&#x2005;" horiz-adv-x="477" 
 />
    <glyph glyph-name="uni2006" unicode="&#x2006;" horiz-adv-x="317" 
 />
    <glyph glyph-name="uni2007" unicode="&#x2007;" horiz-adv-x="317" 
 />
    <glyph glyph-name="uni2008" unicode="&#x2008;" horiz-adv-x="237" 
 />
    <glyph glyph-name="uni2009" unicode="&#x2009;" horiz-adv-x="380" 
 />
    <glyph glyph-name="uni200A" unicode="&#x200a;" horiz-adv-x="104" 
 />
    <glyph glyph-name="uni2010" unicode="&#x2010;" horiz-adv-x="1015" 
d="M152 424v229h712v-229h-712z" />
    <glyph glyph-name="uni2011" unicode="&#x2011;" horiz-adv-x="1015" 
d="M152 424v229h712v-229h-712z" />
    <glyph glyph-name="figuredash" unicode="&#x2012;" horiz-adv-x="1015" 
d="M152 424v229h712v-229h-712z" />
    <glyph glyph-name="endash" unicode="&#x2013;" horiz-adv-x="1024" 
d="M152 424v229h720v-229h-720z" />
    <glyph glyph-name="emdash" unicode="&#x2014;" horiz-adv-x="2048" 
d="M152 424v229h1744v-229h-1744z" />
    <glyph glyph-name="quoteleft" unicode="&#x2018;" horiz-adv-x="712" 
d="M78 1311l104 207l453 -252l-84 -150z" />
    <glyph glyph-name="quoteright" unicode="&#x2019;" horiz-adv-x="487" 
d="M94 1366h299l-37 -518h-225z" />
    <glyph glyph-name="quotedblleft" unicode="&#x201c;" horiz-adv-x="833" 
d="M94 1366h297l-37 -518h-223zM442 1366h297l-37 -518h-223z" />
    <glyph glyph-name="quotedblright" unicode="&#x201d;" horiz-adv-x="833" 
d="M94 1366h297l-37 -518h-223zM442 1366h297l-37 -518h-223z" />
    <glyph glyph-name="ellipsis" unicode="&#x2026;" horiz-adv-x="1763" 
d="M1301 155.5q0 69.5 49 119t121 49.5q70 0 119 -49.5t49 -118.5q0 -72 -49 -121t-119 -49t-120 50t-50 119.5zM713 155.5q0 69.5 49 119t121 49.5q70 0 119 -49.5t49 -118.5q0 -72 -49 -121t-119 -49t-120 50t-50 119.5zM125 155.5q0 69.5 49 119t121 49.5q70 0 119 -49.5
t49 -118.5q0 -72 -49 -121t-119 -49t-120 50t-50 119.5z" />
    <glyph glyph-name="uni202F" unicode="&#x202f;" horiz-adv-x="380" 
 />
    <glyph glyph-name="guilsinglleft" unicode="&#x2039;" horiz-adv-x="1320" 
d="M121 451v178l989 450l90 -213l-723 -327l723 -334l-90 -205z" />
    <glyph glyph-name="guilsinglright" unicode="&#x203a;" horiz-adv-x="1320" 
d="M121 205l723 334l-723 327l90 213l989 -450v-178l-989 -451z" />
    <glyph glyph-name="uni205F" unicode="&#x205f;" horiz-adv-x="477" 
 />
    <glyph glyph-name="Euro" unicode="&#x20ac;" 
d="M223 -184l105 174q125 -78 256 -78q98 0 147 38t49 97q0 47 -39 82q-27 25 -174 81t-213 118q-94 88 -94 217q0 195 189 268q-154 102 -154 250q0 152 108.5 245t309.5 93q213 0 336 -103l-99 -163q-104 66 -219 65q-90 0 -135 -31.5t-45 -83.5q0 -43 37 -75
q31 -29 187.5 -89.5t217.5 -115.5q86 -80 86 -209q0 -188 -184 -281q63 -37 100 -103.5t37 -145.5q0 -162 -114.5 -264.5t-319.5 -102.5q-211 0 -375 117zM496 586q0 -43 30 -74q37 -37 187 -92q131 66 131 141q0 39 -31 70q-43 43 -195 96q-122 -51 -122 -141z" />
    <glyph glyph-name="trademark" unicode="&#x2122;" horiz-adv-x="2920" 
d="M1262 0l123 1366h311l344 -989l326 989h311l131 -1366h-273l-75 961l-316 -961h-237l-326 961l-63 -961h-256zM55 1133v233h1039v-233h-373v-1133h-291v1133h-375z" />
    <glyph glyph-name="uniE000" unicode="&#xe000;" horiz-adv-x="1010" 
d="M0 1010h1010v-1010h-1010v1010z" />
    <glyph glyph-name="uniFB01" unicode="&#xfb01;" horiz-adv-x="1431" 
d="M1011 1290.5q0 65.5 46.5 111.5t112 46t111.5 -46t46 -111.5t-46 -111.5t-111.5 -46t-112 46t-46.5 111.5zM1032 0v1008h276v-1008h-276zM76 778v230h164v49q0 131 22.5 210t83.5 140q100 100 281 100q80 0 151.5 -23.5t102 -44t34.5 -28.5l-104 -180q-82 49 -145 49
q-43 0 -73 -14.5t-44 -33t-22.5 -52t-9.5 -56t-1 -63.5v-53h297v-230h-297v-778h-276v778h-164z" />
    <glyph glyph-name="uniFB02" unicode="&#xfb02;" horiz-adv-x="1433" 
d="M1032 0v1483h276v-1483h-276zM76 778v230h164v49q0 131 22.5 210t83.5 140q100 100 281 100q80 0 151.5 -23.5t102 -44t34.5 -28.5l-104 -180q-82 49 -145 49q-43 0 -73 -14.5t-44 -33t-22.5 -52t-9.5 -56t-1 -63.5v-53h297v-230h-297v-778h-276v778h-164z" />
    <glyph glyph-name="uniFB03" unicode="&#xfb03;" horiz-adv-x="2338" 
d="M1919 1290.5q0 65.5 46.5 111.5t112 46t111.5 -46t46 -111.5t-46 -111.5t-111.5 -46t-112 46t-46.5 111.5zM1940 0v1008h276v-1008h-276zM983 778v230h164v49q0 131 22.5 210t83.5 140q100 100 281 100q80 0 151.5 -23.5t102 -44t34.5 -28.5l-104 -180q-82 49 -145 49
q-43 0 -73 -14.5t-44 -33t-22.5 -52t-9.5 -56t-1 -63.5v-53h297v-230h-297v-778h-276v778h-164zM76 778v230h164v49q0 131 22.5 210t83.5 140q100 100 281 100q80 0 151.5 -23.5t102 -44t34.5 -28.5l-104 -180q-82 49 -145 49q-43 0 -73 -14.5t-44 -33t-22.5 -52t-9.5 -56
t-1 -63.5v-53h297v-230h-297v-778h-276v778h-164z" />
    <glyph glyph-name="uniFB04" unicode="&#xfb04;" horiz-adv-x="2340" 
d="M1940 0v1483h276v-1483h-276zM983 778v230h164v49q0 131 22.5 210t83.5 140q100 100 281 100q80 0 151.5 -23.5t102 -44t34.5 -28.5l-104 -180q-82 49 -145 49q-43 0 -73 -14.5t-44 -33t-22.5 -52t-9.5 -56t-1 -63.5v-53h297v-230h-297v-778h-276v778h-164zM76 778v230
h164v49q0 131 22.5 210t83.5 140q100 100 281 100q80 0 151.5 -23.5t102 -44t34.5 -28.5l-104 -180q-82 49 -145 49q-43 0 -73 -14.5t-44 -33t-22.5 -52t-9.5 -56t-1 -63.5v-53h297v-230h-297v-778h-276v778h-164z" />
    </font>
</defs>
</svg>
